<svg width="180" height="58" viewBox="0 0 180 58" fill="none" xmlns="http://www.w3.org/2000/svg">
<path d="M57.2244 50.0044C57.2244 51.695 55.8561 53.0597 54.169 53.0597H3.05178C1.36829 53.0597 0 51.695 0 50.0044V8.04627C0 6.35562 1.36829 4.99451 3.05178 4.99451H54.169C55.8561 4.99451 57.2244 6.35562 57.2244 8.04627V50.0044Z" fill="#EF4050"/>
<path d="M13.3494 19.8809C14.5458 20.6689 15.144 21.876 15.144 23.4986V33.3165C15.144 33.6711 15.2371 33.9326 15.4234 34.1153C15.6311 34.3266 15.9212 34.4305 16.2902 34.4305C16.5373 34.4305 16.7415 34.5093 16.9098 34.6812C17.0531 34.8424 17.1355 35.0537 17.157 35.2973C17.157 35.5265 17.0818 35.7235 16.9385 35.8883C16.7737 36.071 16.5445 36.1641 16.2544 36.1641C15.0795 36.1641 14.2628 36.0244 13.8115 35.7307C13.439 35.4656 13.2563 35.0107 13.2563 34.3696C12.6366 34.9713 11.9346 35.4442 11.1502 35.7916C10.0756 36.268 8.85774 36.5044 7.5002 36.5044C5.6412 36.5044 4.23709 36.071 3.28789 35.2042C2.36018 34.3803 1.89453 33.2126 1.89453 31.7047C1.89453 30.3436 2.21332 29.2941 2.85448 28.5455C3.8001 27.4781 5.52658 26.7832 8.02316 26.4751C10.2332 26.1671 11.6588 25.834 12.2964 25.4865C12.9124 25.1534 13.2277 24.5445 13.2277 23.6598C13.2277 22.6497 12.8802 21.8868 12.2032 21.3674C11.4833 20.8301 10.398 20.5615 8.95087 20.5615C7.54677 20.5615 6.49727 20.8695 5.79522 21.4927C5.17555 22.0264 4.8102 22.8109 4.7099 23.8425C4.66692 24.1075 4.53439 24.3153 4.30515 24.4585C4.11889 24.6054 3.88965 24.6699 3.62101 24.6448C3.37385 24.6269 3.16611 24.523 3.00492 24.3368C2.81866 24.1505 2.75777 23.8998 2.81866 23.5953C3.06939 22.0014 3.72488 20.8086 4.79945 20.0027C5.85253 19.2397 7.2423 18.8529 8.97952 18.8529C10.8385 18.8601 12.2964 19.2003 13.3494 19.8809ZM13.2277 26.7259C12.9339 26.9694 12.4325 27.2094 11.7089 27.4351C10.8206 27.7037 9.60278 27.9437 8.0554 28.1479C6.50802 28.3592 5.41195 28.7496 4.7708 29.3263C4.15471 29.8636 3.84308 30.6552 3.84308 31.7083C3.84308 32.7183 4.13322 33.4777 4.7099 33.9684C5.3045 34.5093 6.23221 34.7743 7.49662 34.7743C8.91863 34.7743 10.1329 34.5093 11.1466 33.9684C12.0528 33.4956 12.7477 32.833 13.2241 31.9841V26.7259H13.2277Z" fill="white"/>
<path d="M20.5625 20.1603C20.5625 19.8487 20.6556 19.6015 20.8419 19.4153C21.0281 19.2469 21.2502 19.1681 21.5189 19.1681C21.7696 19.1681 21.9845 19.2469 22.1708 19.4153C22.3785 19.6015 22.4788 19.8487 22.4788 20.1603V21.6754C23.0985 20.7262 23.8543 20.0135 24.7426 19.5371C25.6309 19.0822 26.6696 18.8565 27.8696 18.8565C30.2229 18.8565 32.0604 19.7663 33.3785 21.5823C34.5785 23.1942 35.1766 25.2143 35.1766 27.6464C35.1766 30.0821 34.5749 32.1166 33.3785 33.7464C32.0604 35.5839 30.2229 36.5008 27.8696 36.5008C26.5873 36.5008 25.441 36.225 24.4309 35.6698C23.5641 35.1934 22.9122 34.5953 22.4788 33.8717V39.3807C22.4788 39.7066 22.3785 39.9788 22.1708 40.1866C21.9845 40.3764 21.766 40.4588 21.5189 40.4337C21.2502 40.4337 21.0246 40.3406 20.8419 40.1543C20.6556 39.9323 20.5625 39.6421 20.5625 39.2875V20.1603ZM23.7504 22.7643C22.9051 24.0646 22.4788 25.6979 22.4788 27.6822C22.4788 29.6451 22.9015 31.2785 23.7504 32.5751C24.7211 34.0401 26.0965 34.7708 27.8696 34.7708C29.5996 34.7708 30.9536 34.0401 31.9243 32.5751C32.7911 31.2749 33.2245 29.6415 33.2245 27.6822C33.2245 25.7015 32.7947 24.0646 31.9243 22.7643C30.9536 21.2958 29.5996 20.5651 27.8696 20.5651C26.0929 20.5651 24.7211 21.2958 23.7504 22.7643Z" fill="white"/>
<path d="M39.7549 20.1603C39.7549 19.8487 39.848 19.6015 40.0379 19.4153C40.2205 19.2469 40.4462 19.1681 40.7148 19.1681C40.9656 19.1681 41.1805 19.2469 41.3632 19.4153C41.5709 19.6015 41.6748 19.8487 41.6748 20.1603V21.6754C42.2944 20.7262 43.0466 20.0135 43.935 19.5371C44.8233 19.0822 45.8656 18.8565 47.062 18.8565C49.4153 18.8565 51.2528 19.7663 52.5745 21.5823C53.7744 23.1942 54.369 25.2143 54.369 27.6464C54.369 30.0821 53.7744 32.1166 52.5745 33.7464C51.2528 35.5839 49.4153 36.5008 47.062 36.5008C45.7832 36.5008 44.6406 36.225 43.6269 35.6698C42.7601 35.1934 42.1082 34.5953 41.6784 33.8717V39.3807C41.6784 39.7066 41.5745 39.9788 41.3667 40.1866C41.1805 40.3764 40.9691 40.4588 40.7184 40.4337C40.4498 40.4337 40.2205 40.3406 40.0414 40.1543C39.8516 39.9323 39.7585 39.6421 39.7585 39.2875V20.1603H39.7549ZM42.9428 22.7643C42.0974 24.0646 41.6748 25.6979 41.6748 27.6822C41.6748 29.6451 42.0974 31.2785 42.9428 32.5751C43.9135 34.0401 45.2889 34.7708 47.062 34.7708C48.7956 34.7708 50.1496 34.0401 51.1167 32.5751C51.9835 31.2749 52.4205 29.6415 52.4205 27.6822C52.4205 25.7015 51.9835 24.0646 51.1167 22.7643C50.1496 21.2958 48.7956 20.5651 47.062 20.5651C45.2853 20.5651 43.9135 21.2958 42.9428 22.7643Z" fill="white"/>
<path d="M61.9955 14.3719C62.2068 14.2251 62.4647 14.1534 62.7691 14.1534C63.0772 14.1534 63.3351 14.2251 63.5428 14.3719C63.7757 14.5367 63.8939 14.7767 63.8939 15.0811V19.3866H66.7844C67.3934 19.3866 67.7014 19.6624 67.7014 20.2211C67.7014 20.8014 67.3934 21.088 66.7844 21.088H63.8939V33.3774C63.8939 33.7499 64.0121 34.0615 64.2485 34.3122C64.5314 34.6203 64.929 34.7743 65.4484 34.7743H66.7164C67.0459 34.7743 67.3182 34.8567 67.5259 35.0215C67.7157 35.1862 67.8089 35.394 67.8089 35.6447C67.8089 35.8668 67.7157 36.0638 67.5259 36.2321C67.3146 36.4184 67.0459 36.5079 66.7164 36.5079H65.0616C63.9834 36.5079 63.1381 36.1927 62.5256 35.548C61.9596 34.9928 61.6838 34.3122 61.6838 33.5063V21.088H59.7783C59.241 21.088 58.9688 20.8014 58.9688 20.2211C58.9688 19.6624 59.241 19.3866 59.7783 19.3866H61.6838V15.0811C61.6802 14.7767 61.7841 14.5367 61.9955 14.3719Z" fill="#231F20"/>
<path d="M72.3543 19.3222C72.5692 19.1826 72.8271 19.1109 73.128 19.1109C73.4145 19.1109 73.6617 19.1754 73.8694 19.2972C74.1058 19.4619 74.224 19.6912 74.224 19.9813V21.2529C74.8079 20.5293 75.4454 19.9813 76.126 19.6088C77.0179 19.1145 78.028 18.8638 79.1563 18.8638C79.6721 18.8638 79.9407 19.1754 79.9658 19.7951C79.9909 20.4326 79.7079 20.755 79.1205 20.755C77.9707 20.755 76.9463 21.0129 76.058 21.5251C75.2592 21.9836 74.6467 22.6104 74.224 23.4128V35.4873C74.224 35.7953 74.1058 36.0424 73.8694 36.2323C73.6581 36.3971 73.4145 36.4759 73.128 36.4759C72.8271 36.4759 72.5692 36.3971 72.3543 36.2323C72.1429 36.0424 72.0391 35.7953 72.0391 35.4873V19.9777C72.0391 19.7091 72.1429 19.4906 72.3543 19.3222Z" fill="#231F20"/>
<path d="M96.1419 19.8809C97.5031 20.6689 98.1872 21.876 98.1872 23.4986V33.3165C98.1872 33.6711 98.2947 33.9326 98.5024 34.1153C98.7352 34.3266 99.0648 34.4305 99.4874 34.4305C99.774 34.4305 99.9997 34.5093 100.193 34.6812C100.354 34.8424 100.451 35.0537 100.472 35.2973C100.472 35.5265 100.394 35.7235 100.229 35.8883C100.039 36.071 99.7812 36.1641 99.4516 36.1641C98.112 36.1641 97.1843 36.0244 96.6685 35.7307C96.2458 35.4656 96.0345 35.0107 96.0345 34.3696C95.3289 34.9713 94.5301 35.4442 93.6418 35.7916C92.4168 36.268 91.0306 36.5044 89.4796 36.5044C87.3663 36.5044 85.7688 36.071 84.6906 35.2042C83.634 34.3803 83.1074 33.2126 83.1074 31.7047C83.1074 30.3436 83.4728 29.2941 84.1999 28.5455C85.2781 27.4781 87.2409 26.7832 90.0814 26.4751C92.5923 26.1671 94.2149 25.834 94.9456 25.4865C95.6476 25.1534 95.9987 24.5445 95.9987 23.6598C95.9987 22.6497 95.6154 21.8868 94.8417 21.3674C94.0215 20.8301 92.7857 20.5615 91.1416 20.5615C89.5405 20.5615 88.3442 20.8695 87.5418 21.4927C86.8398 22.0264 86.4278 22.8109 86.3096 23.8425C86.2631 24.1075 86.109 24.3153 85.8512 24.4585C85.6362 24.6054 85.3819 24.6699 85.0739 24.6448C84.7945 24.6269 84.5581 24.523 84.3718 24.3368C84.1605 24.1505 84.0889 23.8998 84.1605 23.5953C84.4435 22.0014 85.1957 20.8086 86.4171 20.0027C87.6134 19.2397 89.2002 18.8529 91.1703 18.8529C93.2872 18.8601 94.9456 19.2003 96.1419 19.8809ZM95.9951 26.7259C95.6727 26.9694 95.096 27.2094 94.2722 27.4351C93.2621 27.7037 91.8795 27.9437 90.1136 28.1479C88.3549 28.3592 87.1084 28.7496 86.3813 29.3263C85.6756 29.8636 85.3246 30.6552 85.3246 31.7083C85.3246 32.7183 85.6542 33.4777 86.3096 33.9684C86.9902 34.5093 88.0469 34.7743 89.4796 34.7743C91.1022 34.7743 92.4884 34.5093 93.6418 33.9684C94.6734 33.4956 95.4614 32.833 95.9951 31.9841V26.7259Z" fill="#231F20"/>
<path d="M107.098 13.165C107.402 13.4766 107.556 13.8527 107.556 14.3112C107.556 14.7231 107.402 15.0813 107.098 15.3929C106.768 15.726 106.335 15.8872 105.794 15.8872C105.231 15.8872 104.798 15.7225 104.49 15.3929C104.207 15.1028 104.067 14.7446 104.067 14.3112C104.067 13.8527 104.207 13.4766 104.49 13.165C104.798 12.8319 105.228 12.6671 105.794 12.6671C106.338 12.6671 106.768 12.8319 107.098 13.165ZM105.017 19.0751C105.231 18.9103 105.486 18.8279 105.794 18.8279C106.098 18.8279 106.356 18.8996 106.568 19.0429C106.808 19.2076 106.922 19.4333 106.922 19.7234V35.4837C106.922 35.7917 106.808 36.0389 106.568 36.2287C106.36 36.4149 106.102 36.5045 105.794 36.5045C105.486 36.5045 105.231 36.4221 105.017 36.2573C104.809 36.0532 104.705 35.7953 104.705 35.4837V19.7234C104.705 19.4369 104.809 19.2219 105.017 19.0751Z" fill="#231F20"/>
<path d="M113.37 19.3544C113.582 19.1896 113.836 19.1072 114.144 19.1072C114.427 19.1072 114.678 19.1896 114.882 19.3544C115.118 19.5406 115.233 19.7914 115.233 20.0958V22.0157C115.917 21.0056 116.787 20.2319 117.841 19.6947C118.944 19.1395 120.237 18.8565 121.72 18.8565C123.625 18.8565 125.14 19.3616 126.265 20.3752C127.3 21.285 127.816 22.4061 127.816 23.7493V35.48C127.816 35.788 127.698 36.0459 127.465 36.2537C127.254 36.4184 127.003 36.5008 126.724 36.5008C126.419 36.5008 126.161 36.4184 125.954 36.2537C125.735 36.0495 125.635 35.7916 125.635 35.48V23.7529C125.635 22.8646 125.305 22.1339 124.65 21.5537C123.919 20.891 122.941 20.5651 121.723 20.5651C120.384 20.5651 119.187 20.8731 118.131 21.4963C117.024 22.1339 116.064 23.1154 115.236 24.4299V35.4585C115.236 35.7845 115.118 36.0531 114.885 36.2608C114.678 36.4256 114.427 36.5187 114.148 36.5402C113.84 36.5402 113.585 36.4471 113.374 36.2608C113.163 36.0746 113.059 35.8203 113.059 35.4872V20.0958C113.055 19.7914 113.163 19.5406 113.37 19.3544Z" fill="#231F20"/>
<path d="M147.198 30.6231C147.481 30.5442 147.775 30.5514 148.079 30.6553C148.362 30.7413 148.556 30.8953 148.681 31.1209C148.821 31.3932 148.821 31.6797 148.681 31.9877C147.997 33.4348 147.016 34.5416 145.723 35.301C144.404 36.1069 142.857 36.5081 141.07 36.5081C138.555 36.5081 136.56 35.6019 135.077 33.7858C133.741 32.1346 133.071 30.1108 133.071 27.7146C133.071 25.304 133.741 23.2587 135.077 21.586C136.56 19.77 138.555 18.8602 141.07 18.8602C143.581 18.8602 145.586 19.77 147.094 21.586C148.452 23.2551 149.136 25.3004 149.136 27.7146V28.2124H135.288C135.385 29.964 135.89 31.4433 136.807 32.6361C137.86 34.0616 139.282 34.7744 141.07 34.7744C142.477 34.7744 143.649 34.4127 144.594 33.6927C145.321 33.1554 145.963 32.3495 146.532 31.2785C146.672 30.9633 146.89 30.7484 147.198 30.6231ZM146.808 26.4752C146.672 25.0067 146.163 23.7208 145.296 22.6032C144.218 21.2457 142.807 20.5616 141.07 20.5616C139.329 20.5616 137.932 21.2314 136.872 22.571C136.005 23.667 135.5 24.9673 135.36 26.4717H146.808V26.4752Z" fill="#231F20"/>
<path d="M154.773 19.3222C154.988 19.1826 155.242 19.1109 155.55 19.1109C155.833 19.1109 156.077 19.1754 156.288 19.2972C156.525 19.4619 156.639 19.6912 156.639 19.9813V21.2529C157.23 20.5293 157.857 19.9813 158.545 19.6088C159.437 19.1145 160.447 18.8638 161.572 18.8638C162.091 18.8638 162.36 19.1754 162.381 19.7951C162.403 20.4326 162.123 20.755 161.536 20.755C160.39 20.755 159.362 21.0129 158.473 21.5251C157.671 21.9836 157.062 22.6104 156.636 23.4128V35.4873C156.636 35.7953 156.518 36.0424 156.285 36.2323C156.073 36.3971 155.826 36.4759 155.547 36.4759C155.239 36.4759 154.981 36.3971 154.77 36.2323C154.562 36.0424 154.458 35.7953 154.458 35.4873V19.9777C154.458 19.7091 154.562 19.4906 154.773 19.3222Z" fill="#231F20"/>
<path d="M177.786 20.1925C178.818 20.9555 179.391 21.9692 179.509 23.2228C179.531 23.5129 179.427 23.7637 179.191 23.9643C178.979 24.1326 178.711 24.2365 178.381 24.2795C178.073 24.2974 177.804 24.2329 177.572 24.0932C177.31 23.9249 177.17 23.6956 177.145 23.4055C177.052 22.4993 176.629 21.808 175.877 21.3352C175.079 20.8194 173.893 20.5615 172.317 20.5615C171.121 20.5615 170.121 20.7764 169.322 21.2098C168.516 21.6826 168.122 22.2844 168.122 23.0043C168.122 23.8496 168.477 24.523 169.179 25.0173C169.935 25.5295 171.318 26.0167 173.338 26.4716C175.809 26.9659 177.543 27.6357 178.553 28.4846C179.52 29.269 180 30.3543 180 31.7369C180 33.1195 179.427 34.2371 178.27 35.0788C177.027 36.028 175.24 36.5008 172.915 36.5008C170.587 36.5008 168.803 36.0817 167.557 35.2328C166.31 34.3875 165.651 33.1589 165.586 31.5507C165.561 31.2605 165.672 31.0241 165.902 30.8343C166.092 30.6695 166.339 30.5871 166.643 30.5871C166.944 30.5657 167.202 30.6301 167.417 30.7734C167.65 30.9167 167.782 31.1388 167.807 31.4253C167.807 32.4999 168.194 33.3165 168.968 33.8717C169.792 34.4699 171.121 34.7672 172.947 34.7672C174.473 34.7672 175.677 34.4699 176.54 33.8717C177.364 33.3309 177.779 32.6109 177.779 31.7047C177.779 30.8594 177.421 30.1967 176.719 29.7239C175.874 29.1257 174.298 28.5777 171.998 28.0798C169.906 27.6034 168.391 27.0124 167.453 26.2853C166.417 25.5224 165.898 24.5015 165.898 23.2228C165.898 21.8402 166.525 20.7585 167.768 19.9741C168.943 19.2326 170.476 18.8565 172.385 18.8565C174.763 18.8601 176.565 19.3042 177.786 20.1925Z" fill="#231F20"/>
<path d="M5.03728 42.9228C5.08026 42.9586 5.10175 43.0052 5.10175 43.066C5.10175 43.1126 5.08026 43.1628 5.03728 43.1986C4.99788 43.2451 4.94415 43.2595 4.87609 43.2595H3.52572V48.0055C3.52572 48.0735 3.50064 48.1272 3.45766 48.1738C3.41826 48.2096 3.37169 48.2239 3.31797 48.2239C3.26065 48.2239 3.21051 48.206 3.16753 48.1738C3.12812 48.1272 3.11022 48.0735 3.11022 48.0055V43.2595H1.69178C1.58433 43.2595 1.53418 43.195 1.53418 43.0625C1.53418 42.9264 1.58433 42.8619 1.69178 42.8619H4.87609C4.94415 42.869 4.99788 42.8869 5.03728 42.9228Z" fill="white"/>
<path d="M6.01479 44.2803C6.05419 44.2481 6.10075 44.2266 6.15806 44.2266C6.21537 44.2266 6.26194 44.2445 6.30134 44.2731C6.34432 44.3125 6.3694 44.3627 6.3694 44.4307V44.7209C6.48043 44.5525 6.59864 44.4307 6.72759 44.3448C6.89952 44.2266 7.09294 44.1729 7.30785 44.1729C7.40456 44.1729 7.45471 44.2445 7.46187 44.3842C7.46546 44.5275 7.41173 44.6027 7.30069 44.6027C7.08219 44.6027 6.88877 44.6636 6.72042 44.7818C6.56998 44.8856 6.45178 45.0325 6.37298 45.2152V47.9983C6.37298 48.0664 6.3479 48.1308 6.30492 48.1666C6.26552 48.206 6.21896 48.2275 6.16165 48.2275C6.10434 48.2275 6.05777 48.2025 6.01837 48.1666C5.97539 48.1308 5.95748 48.0664 5.95748 47.9983V44.4272C5.9539 44.3663 5.97181 44.3161 6.01479 44.2803Z" fill="white"/>
<path d="M10.5194 44.4057C10.7773 44.5884 10.9062 44.8642 10.9062 45.2403V47.5004C10.9062 47.5757 10.9277 47.6401 10.9671 47.6795C11.0137 47.7297 11.0746 47.7547 11.1569 47.7547C11.2107 47.7547 11.2536 47.7762 11.293 47.8085C11.3217 47.8479 11.3396 47.898 11.3432 47.9482C11.3432 48.0019 11.3289 48.0449 11.2966 48.0879C11.2608 48.1273 11.2107 48.1488 11.1498 48.1488C10.8955 48.1488 10.7235 48.1165 10.6232 48.0485C10.5444 47.9876 10.5014 47.8801 10.5014 47.7368C10.3689 47.873 10.2185 47.984 10.0501 48.0628C9.81731 48.1738 9.55941 48.224 9.26211 48.224C8.86452 48.224 8.56006 48.1237 8.35589 47.9303C8.1553 47.7404 8.05859 47.4682 8.05859 47.1208C8.05859 46.8091 8.12665 46.5656 8.26634 46.3901C8.47051 46.1465 8.83945 45.9889 9.38031 45.9137C9.86029 45.8456 10.1648 45.7704 10.3009 45.6916C10.437 45.6128 10.5014 45.4731 10.5014 45.2725C10.5014 45.0361 10.4298 44.8606 10.283 44.7424C10.1253 44.617 9.89611 44.5561 9.58448 44.5561C9.28002 44.5561 9.05436 44.6278 8.90034 44.7675C8.77139 44.8928 8.69259 45.0719 8.66752 45.3119C8.66035 45.3728 8.62812 45.4194 8.58155 45.4552C8.53857 45.4874 8.492 45.5018 8.43469 45.4982C8.37738 45.491 8.3344 45.4659 8.29858 45.4265C8.25918 45.3835 8.24485 45.3262 8.25918 45.2582C8.31291 44.8857 8.45618 44.6134 8.68901 44.4272C8.91467 44.2517 9.21197 44.1657 9.59165 44.1657C9.97849 44.1729 10.2901 44.2481 10.5194 44.4057ZM10.4907 45.9817C10.4298 46.039 10.3224 46.0963 10.1647 46.1465C9.97133 46.211 9.70985 46.2647 9.37673 46.3113C9.04003 46.3578 8.80721 46.4474 8.66752 46.5835C8.5314 46.7088 8.46693 46.8915 8.46693 47.1315C8.46693 47.3643 8.52782 47.5398 8.65319 47.6545C8.78214 47.7727 8.98272 47.8407 9.25137 47.8407C9.56299 47.8407 9.82089 47.7762 10.0394 47.6545C10.2364 47.5434 10.3832 47.3894 10.4835 47.196V45.9817H10.4907Z" fill="white"/>
<path d="M12.1348 44.284C12.1742 44.2482 12.2243 44.2267 12.2816 44.2267C12.3354 44.2267 12.3819 44.2482 12.4213 44.284C12.4679 44.327 12.4894 44.3843 12.4894 44.4559V44.8929C12.6183 44.6673 12.7867 44.4882 12.9801 44.3628C13.1914 44.2303 13.435 44.1694 13.7144 44.1694C14.0726 44.1694 14.3591 44.2876 14.5776 44.5168C14.7711 44.7281 14.8714 44.9825 14.8714 45.2977V47.9984C14.8714 48.0665 14.8499 48.1309 14.8033 48.1775C14.7639 48.2133 14.7173 48.2276 14.66 48.2276C14.6027 48.2276 14.5561 48.2097 14.5132 48.1775C14.4738 48.1309 14.4559 48.0665 14.4559 47.9984V45.2977C14.4559 45.0899 14.3914 44.9216 14.266 44.789C14.1263 44.6422 13.9436 44.5634 13.7144 44.5634C13.4601 44.5634 13.2308 44.635 13.0338 44.7747C12.8261 44.9216 12.6398 45.1508 12.4858 45.4517V47.9877C12.4858 48.0665 12.4643 48.1273 12.4178 48.1775C12.3784 48.2133 12.3318 48.2312 12.2781 48.2384C12.2208 48.2384 12.1706 48.2133 12.1312 48.1775C12.0882 48.1309 12.0703 48.0736 12.0703 47.9984V44.4559C12.0739 44.3843 12.0918 44.327 12.1348 44.284Z" fill="white"/>
<path d="M18.1851 44.4773C18.3785 44.6528 18.4895 44.8821 18.5074 45.1794C18.511 45.2403 18.4931 45.3011 18.4465 45.3441C18.4071 45.3835 18.357 45.4086 18.2925 45.4193C18.2352 45.4229 18.1851 45.4086 18.1385 45.3764C18.0883 45.337 18.0633 45.2797 18.0597 45.2152C18.0418 45.0074 17.963 44.8462 17.8197 44.7424C17.6657 44.6242 17.44 44.5633 17.1463 44.5633C16.9171 44.5633 16.7272 44.6098 16.5804 44.7101C16.4263 44.8212 16.3511 44.9573 16.3511 45.1256C16.3511 45.3191 16.4192 45.4731 16.5517 45.5877C16.695 45.7095 16.9565 45.8169 17.3397 45.9208C17.809 46.039 18.1349 46.193 18.3248 46.3865C18.5074 46.5691 18.6006 46.8163 18.6006 47.1315C18.6006 47.4503 18.4931 47.7082 18.2746 47.9052C18.0382 48.1237 17.6979 48.2275 17.2609 48.2275C16.8168 48.2275 16.4801 48.1308 16.2437 47.9374C16.0073 47.744 15.8855 47.461 15.8676 47.0921C15.864 47.024 15.8855 46.9703 15.9285 46.9273C15.9643 46.8915 16.0108 46.8736 16.0682 46.8736C16.1291 46.8664 16.1792 46.8843 16.215 46.9166C16.2616 46.9524 16.2867 46.999 16.2902 47.067C16.2902 47.3106 16.3655 47.504 16.5123 47.6294C16.6663 47.7655 16.9207 47.8371 17.2645 47.8371C17.5546 47.8371 17.7803 47.7655 17.9451 47.6294C18.1027 47.5076 18.1815 47.3356 18.1815 47.1315C18.1815 46.9345 18.1134 46.7876 17.9773 46.673C17.8197 46.5369 17.5188 46.4115 17.0854 46.2969C16.6878 46.1894 16.4013 46.0498 16.2222 45.8814C16.0252 45.7059 15.9285 45.4767 15.9285 45.1794C15.9285 44.857 16.0467 44.6098 16.2867 44.4307C16.5087 44.2588 16.7953 44.1729 17.1571 44.1729C17.612 44.1729 17.9522 44.2767 18.1851 44.4773Z" fill="white"/>
<path d="M19.6937 42.7975C19.7367 42.7616 19.7833 42.7473 19.8406 42.7473C19.8943 42.7473 19.9409 42.7616 19.9838 42.7975C20.0268 42.8333 20.0483 42.8906 20.0483 42.9586V48.0198C20.0483 48.0879 20.0268 48.1452 19.9838 48.181C19.9409 48.2168 19.8943 48.2312 19.8406 48.2312C19.7833 48.2312 19.7367 48.2133 19.6937 48.181C19.6543 48.1345 19.6328 48.0807 19.6328 48.0127V42.9551C19.6328 42.887 19.6543 42.8333 19.6937 42.7975Z" fill="white"/>
<path d="M23.5083 44.4057C23.7662 44.5884 23.8951 44.8642 23.8951 45.2403V47.5004C23.8951 47.5757 23.913 47.6401 23.9525 47.6795C23.999 47.7297 24.0635 47.7547 24.1423 47.7547C24.196 47.7547 24.239 47.7762 24.2748 47.8085C24.3071 47.8479 24.325 47.898 24.3285 47.9482C24.3285 48.0019 24.3142 48.0449 24.282 48.0879C24.2497 48.1273 24.1996 48.1488 24.1351 48.1488C23.8808 48.1488 23.7017 48.1165 23.605 48.0485C23.5262 47.9876 23.4868 47.8801 23.4868 47.7368C23.3507 47.873 23.2003 47.984 23.0319 48.0628C22.7991 48.1738 22.5376 48.224 22.2439 48.224C21.8427 48.224 21.5418 48.1237 21.3377 47.9303C21.1371 47.7404 21.0332 47.4682 21.0332 47.1208C21.0332 46.8091 21.1048 46.5656 21.241 46.3901C21.4487 46.1465 21.8176 45.9889 22.3585 45.9137C22.8349 45.8456 23.1394 45.7704 23.2755 45.6916C23.4116 45.6128 23.4796 45.4731 23.4796 45.2725C23.4796 45.0361 23.4044 44.8606 23.2576 44.7424C23.1 44.617 22.8671 44.5561 22.5591 44.5561C22.2546 44.5561 22.029 44.6278 21.8749 44.7675C21.7388 44.8928 21.66 45.0719 21.6421 45.3119C21.6314 45.3728 21.6027 45.4194 21.5526 45.4552C21.5132 45.4874 21.463 45.5018 21.4057 45.4982C21.352 45.491 21.3054 45.4659 21.2696 45.4265C21.2302 45.3835 21.2159 45.3262 21.2302 45.2582C21.2839 44.8857 21.4272 44.6134 21.6565 44.4272C21.8857 44.2517 22.1866 44.1657 22.5591 44.1657C22.9638 44.1729 23.2755 44.2481 23.5083 44.4057ZM23.4796 45.9817C23.4152 46.039 23.3077 46.0963 23.1501 46.1465C22.9567 46.211 22.6988 46.2647 22.3657 46.3113C22.029 46.3578 21.7926 46.4474 21.6565 46.5835C21.5239 46.7088 21.4559 46.8915 21.4559 47.1315C21.4559 47.3643 21.5168 47.5398 21.6457 47.6545C21.7747 47.7727 21.9752 47.8407 22.2439 47.8407C22.5519 47.8407 22.8134 47.7762 23.0319 47.6545C23.2253 47.5434 23.3758 47.3894 23.4796 47.196V45.9817Z" fill="white"/>
<path d="M25.2997 43.1377C25.3426 43.1055 25.3892 43.0876 25.4465 43.0876C25.5074 43.0876 25.5576 43.1055 25.597 43.1377C25.6399 43.1771 25.665 43.2309 25.665 43.2989V44.2911H26.2131C26.3277 44.2911 26.3886 44.3556 26.3886 44.4845C26.3886 44.6206 26.3277 44.6851 26.2131 44.6851H25.665V47.5184C25.665 47.6043 25.6865 47.6724 25.7295 47.7297C25.7832 47.8013 25.8584 47.8372 25.9587 47.8372H26.1987C26.2632 47.8372 26.3133 47.8551 26.3527 47.8873C26.3886 47.9303 26.4065 47.9804 26.4065 48.0377C26.4065 48.0879 26.3886 48.1345 26.3527 48.1703C26.3133 48.2133 26.2632 48.2312 26.1987 48.2312H25.8835C25.6793 48.2312 25.5182 48.1595 25.4 48.0127C25.2961 47.8873 25.2424 47.7297 25.2424 47.547V44.6887H24.8806C24.7767 44.6887 24.7266 44.6242 24.7266 44.4881C24.7266 44.3627 24.7767 44.2947 24.8806 44.2947H25.2424V43.3025C25.2424 43.2309 25.2638 43.1771 25.2997 43.1377Z" fill="white"/>
<path d="M27.7245 42.8583C27.7854 42.93 27.814 43.0159 27.814 43.1234C27.814 43.2165 27.7854 43.2989 27.7245 43.3741C27.6636 43.4493 27.5812 43.4852 27.4773 43.4852C27.3699 43.4852 27.2875 43.4493 27.2302 43.3741C27.1764 43.3061 27.1514 43.2237 27.1514 43.1234C27.1514 43.0159 27.1764 42.93 27.2302 42.8583C27.2875 42.7831 27.3699 42.7437 27.4773 42.7437C27.5812 42.7473 27.6636 42.7831 27.7245 42.8583ZM27.3305 44.2194C27.3699 44.1836 27.42 44.1657 27.4773 44.1657C27.5382 44.1657 27.5848 44.1836 27.6242 44.2123C27.6707 44.2517 27.6922 44.3018 27.6922 44.3699V47.9983C27.6922 48.0664 27.6707 48.1309 27.6242 48.1667C27.5848 48.2097 27.5382 48.2276 27.4773 48.2276C27.42 48.2276 27.3699 48.2097 27.3305 48.1774C27.2911 48.1309 27.2732 48.0664 27.2732 47.9983V44.3699C27.2732 44.3018 27.2911 44.2588 27.3305 44.2194Z" fill="white"/>
<path d="M28.9141 44.284C28.9571 44.2482 29.0036 44.2267 29.0645 44.2267C29.1183 44.2267 29.1648 44.2482 29.2042 44.284C29.2508 44.327 29.2687 44.3843 29.2687 44.4559V44.8929C29.4012 44.6673 29.566 44.4882 29.763 44.3628C29.9743 44.2303 30.2179 44.1694 30.4973 44.1694C30.8591 44.1694 31.1456 44.2876 31.3569 44.5168C31.5539 44.7281 31.6507 44.9825 31.6507 45.2977V47.9984C31.6507 48.0665 31.6292 48.1309 31.5862 48.1775C31.5468 48.2133 31.4966 48.2276 31.4429 48.2276C31.3856 48.2276 31.3354 48.2097 31.296 48.1775C31.2566 48.1309 31.2352 48.0665 31.2352 47.9984V45.2977C31.2352 45.0899 31.1743 44.9216 31.0489 44.789C30.9092 44.6422 30.7265 44.5634 30.4937 44.5634C30.2394 44.5634 30.0137 44.635 29.8131 44.7747C29.6018 44.9216 29.4227 45.1508 29.2651 45.4517V47.9877C29.2651 48.0665 29.2472 48.1273 29.2006 48.1775C29.1612 48.2133 29.1147 48.2312 29.0609 48.2384C29 48.2384 28.9535 48.2133 28.9105 48.1775C28.8711 48.1309 28.8496 48.0736 28.8496 47.9984V44.4559C28.8532 44.3843 28.8747 44.327 28.9141 44.284Z" fill="white"/>
<path d="M35.4215 44.284C35.4645 44.2482 35.511 44.2339 35.5719 44.2339C35.6256 44.2339 35.6758 44.2518 35.7152 44.284C35.7618 44.3198 35.7833 44.3771 35.7833 44.4416V47.9125C35.7833 48.2384 35.6543 48.5214 35.4 48.7435C35.1099 49.0013 34.7123 49.1267 34.2036 49.1267C33.8454 49.1267 33.5517 49.073 33.3082 48.9476C33.0574 48.8294 32.8783 48.6503 32.7565 48.4103C32.7207 48.353 32.7136 48.2921 32.7386 48.2348C32.7494 48.1811 32.7852 48.1381 32.8389 48.113C32.8855 48.0808 32.9356 48.0701 32.9858 48.088C33.0395 48.0951 33.0825 48.1274 33.1112 48.1847C33.1935 48.3638 33.3153 48.4927 33.4873 48.5823C33.6699 48.6826 33.9099 48.7327 34.2144 48.7327C34.5941 48.7327 34.8842 48.6467 35.0884 48.4748C35.2746 48.3244 35.3678 48.1345 35.3678 47.9125V47.497C35.2746 47.6581 35.1313 47.805 34.9487 47.9125C34.7302 48.0414 34.483 48.1059 34.2144 48.1059C33.7022 48.1059 33.3046 47.9017 33.018 47.497C32.7637 47.1424 32.6348 46.691 32.6348 46.1358C32.6348 45.6021 32.7637 45.1544 33.018 44.7819C33.3082 44.37 33.7058 44.1622 34.2144 44.1622C34.4687 44.1622 34.6908 44.2124 34.8842 44.3163C35.0705 44.4237 35.2352 44.5921 35.3678 44.8106V44.4309C35.3606 44.3771 35.3821 44.3198 35.4215 44.284ZM33.3189 45.0613C33.1362 45.3586 33.0431 45.7132 33.0431 46.1358C33.0431 46.5836 33.1362 46.9489 33.3189 47.2319C33.5267 47.5507 33.8168 47.7119 34.2001 47.7119C34.5797 47.7119 34.8699 47.5507 35.0812 47.2319C35.2675 46.9489 35.3606 46.5836 35.3606 46.1358C35.3606 45.7096 35.2675 45.355 35.0812 45.0613C34.8663 44.7282 34.5726 44.5634 34.2001 44.5634C33.8311 44.5634 33.5338 44.7282 33.3189 45.0613Z" fill="white"/>
<path d="M39.8055 42.8583C39.8628 42.93 39.8951 43.0159 39.8951 43.1234C39.8951 43.2165 39.8628 43.2989 39.8055 43.3741C39.7446 43.4493 39.6622 43.4852 39.562 43.4852C39.4509 43.4852 39.3685 43.4493 39.3148 43.3741C39.2575 43.3061 39.2324 43.2237 39.2324 43.1234C39.2324 43.0159 39.2575 42.93 39.3148 42.8583C39.3685 42.7831 39.4509 42.7437 39.562 42.7437C39.6622 42.7473 39.7446 42.7831 39.8055 42.8583ZM39.4115 44.2194C39.4509 44.1836 39.5011 44.1657 39.562 44.1657C39.6157 44.1657 39.6658 44.1836 39.7088 44.2123C39.7482 44.2517 39.7733 44.3018 39.7733 44.3699V47.9983C39.7733 48.0664 39.7482 48.1309 39.7088 48.1667C39.6658 48.2097 39.6157 48.2276 39.562 48.2276C39.5011 48.2276 39.4509 48.2097 39.4115 48.1774C39.3721 48.1309 39.3506 48.0664 39.3506 47.9983V44.3699C39.3506 44.3018 39.3721 44.2588 39.4115 44.2194Z" fill="white"/>
<path d="M43.9284 47.941C43.9213 48.0198 43.8962 48.0771 43.8532 48.1201C43.8174 48.1559 43.7708 48.1702 43.7099 48.1702C43.6598 48.1666 43.6132 48.1416 43.5738 48.1058C43.5308 48.0699 43.5094 48.009 43.5094 47.941V47.6365C43.4126 47.8013 43.273 47.941 43.0831 48.0556C42.8646 48.181 42.621 48.2454 42.356 48.2454C41.8474 48.2454 41.4462 48.0377 41.1632 47.6186C40.9053 47.2461 40.7764 46.7805 40.7764 46.2181C40.7764 45.6557 40.9053 45.1829 41.1632 44.814C41.4462 44.3985 41.8474 44.1872 42.356 44.1872C42.6103 44.1872 42.8252 44.2409 43.0151 44.3448C43.2085 44.4487 43.3732 44.6098 43.5094 44.8319V42.9837C43.5094 42.912 43.5308 42.8547 43.5738 42.8117C43.6132 42.7759 43.6598 42.7616 43.7171 42.7616C43.7744 42.7616 43.821 42.7831 43.8604 42.8153C43.9034 42.8619 43.9284 42.9192 43.9284 42.9944V47.941ZM41.4748 45.0827C41.2922 45.3835 41.199 45.7632 41.199 46.2181C41.199 46.673 41.2922 47.0455 41.4748 47.3464C41.6862 47.6795 41.9763 47.8514 42.356 47.8514C42.7285 47.8514 43.0186 47.6795 43.23 47.3464C43.4198 47.0491 43.5094 46.673 43.5094 46.2181C43.5094 45.7632 43.4198 45.3871 43.23 45.0827C43.0186 44.746 42.7249 44.5776 42.356 44.5776C41.9799 44.5776 41.6862 44.746 41.4748 45.0827Z" fill="white"/>
<path d="M47.579 46.8808C47.6327 46.8628 47.69 46.8628 47.7473 46.8879C47.7975 46.9058 47.8369 46.9416 47.8584 46.9954C47.887 47.0563 47.887 47.1243 47.8584 47.196C47.7294 47.5291 47.5396 47.7798 47.2996 47.9553C47.0525 48.1452 46.7552 48.2347 46.4185 48.2347C45.9457 48.2347 45.5624 48.0305 45.283 47.6115C45.0287 47.2246 44.9033 46.7661 44.9033 46.2109C44.9033 45.6593 45.0287 45.1829 45.283 44.8033C45.5624 44.3842 45.9421 44.1729 46.4185 44.1729C46.8984 44.1729 47.2745 44.3806 47.5611 44.8033C47.8226 45.1829 47.9479 45.6593 47.9479 46.2109V46.3256H45.3224C45.3439 46.7267 45.437 47.067 45.6125 47.3464C45.8131 47.6723 46.0818 47.8371 46.4185 47.8371C46.6871 47.8371 46.9092 47.7511 47.0847 47.59C47.2244 47.461 47.3498 47.2783 47.4536 47.0312C47.4787 46.9596 47.5217 46.9094 47.579 46.8808ZM47.5074 45.9208C47.4787 45.5877 47.382 45.2868 47.2172 45.0325C47.0095 44.7209 46.7444 44.5633 46.4149 44.5633C46.0889 44.5633 45.8239 44.7173 45.6233 45.0253C45.4549 45.2832 45.3582 45.5769 45.3331 45.9208H47.5074Z" fill="white"/>
<path d="M51.2472 44.4057C51.5051 44.5884 51.6341 44.8642 51.6341 45.2403V47.5004C51.6341 47.5757 51.6556 47.6401 51.695 47.6795C51.7379 47.7297 51.8024 47.7547 51.8848 47.7547C51.935 47.7547 51.9779 47.7762 52.0173 47.8085C52.0496 47.8479 52.0675 47.898 52.0675 47.9482C52.0675 48.0019 52.0567 48.0449 52.0245 48.0879C51.9887 48.1273 51.9385 48.1488 51.8776 48.1488C51.6233 48.1488 51.4442 48.1165 51.3475 48.0485C51.2687 47.9876 51.2257 47.8801 51.2257 47.7368C51.0932 47.873 50.9392 47.984 50.7744 48.0628C50.5416 48.1738 50.2837 48.224 49.9864 48.224C49.5852 48.224 49.2843 48.1237 49.0802 47.9303C48.8796 47.7404 48.7793 47.4682 48.7793 47.1208C48.7793 46.8091 48.8474 46.5656 48.9835 46.3901C49.1912 46.1465 49.5602 45.9889 50.101 45.9137C50.581 45.8456 50.8819 45.7704 51.0216 45.6916C51.1577 45.6128 51.2222 45.4731 51.2222 45.2725C51.2222 45.0361 51.1505 44.8606 51.0037 44.7424C50.8461 44.617 50.6096 44.5561 50.3016 44.5561C50.0007 44.5561 49.7715 44.6278 49.621 44.7675C49.4885 44.8928 49.4097 45.0719 49.3918 45.3119C49.3811 45.3728 49.3524 45.4194 49.3023 45.4552C49.2629 45.4874 49.2127 45.5018 49.1554 45.4982C49.1017 45.491 49.0587 45.4659 49.0229 45.4265C48.9835 45.3835 48.9691 45.3262 48.9835 45.2582C49.0372 44.8857 49.1769 44.6134 49.4097 44.4272C49.639 44.2517 49.9398 44.1657 50.3124 44.1657C50.7028 44.1729 51.018 44.2481 51.2472 44.4057ZM51.2186 45.9817C51.1577 46.039 51.0466 46.0963 50.889 46.1465C50.6992 46.211 50.4377 46.2647 50.1046 46.3113C49.7679 46.3578 49.5351 46.4474 49.399 46.5835C49.2629 46.7088 49.1948 46.8915 49.1948 47.1315C49.1948 47.3643 49.2593 47.5398 49.3846 47.6545C49.5136 47.7727 49.7106 47.8407 49.9828 47.8407C50.2909 47.8407 50.5559 47.7762 50.7708 47.6545C50.9678 47.5434 51.1183 47.3894 51.2186 47.196V45.9817Z" fill="white"/>
<path d="M55.1544 44.4773C55.3515 44.6528 55.4589 44.8821 55.484 45.1794C55.4876 45.2403 55.4661 45.3011 55.4195 45.3441C55.3801 45.3835 55.33 45.4086 55.2691 45.4193C55.2118 45.4229 55.158 45.4086 55.115 45.3764C55.0649 45.337 55.0398 45.2797 55.0327 45.2152C55.0148 45.0074 54.936 44.8462 54.7927 44.7424C54.6387 44.6242 54.4166 44.5633 54.1193 44.5633C53.8936 44.5633 53.7002 44.6098 53.5533 44.7101C53.4029 44.8212 53.3241 44.9573 53.3241 45.1256C53.3241 45.3191 53.3922 45.4731 53.5283 45.5877C53.668 45.7095 53.933 45.8169 54.3127 45.9208C54.7819 46.039 55.1115 46.193 55.3013 46.3865C55.484 46.5691 55.5771 46.8163 55.5771 47.1315C55.5771 47.4503 55.4661 47.7082 55.2476 47.9052C55.0112 48.1237 54.6709 48.2275 54.2339 48.2275C53.7933 48.2275 53.4566 48.1308 53.2166 47.9374C52.9802 47.744 52.8585 47.461 52.8441 47.0921C52.837 47.024 52.8585 46.9703 52.905 46.9273C52.9373 46.8915 52.9838 46.8736 53.0447 46.8736C53.102 46.8664 53.1522 46.8843 53.1916 46.9166C53.2346 46.9524 53.2596 46.999 53.2668 47.067C53.2668 47.3106 53.3384 47.504 53.4853 47.6294C53.6429 47.7655 53.8972 47.8371 54.2411 47.8371C54.5312 47.8371 54.7569 47.7655 54.9216 47.6294C55.0792 47.5076 55.1544 47.3356 55.1544 47.1315C55.1544 46.9345 55.0864 46.7876 54.9539 46.673C54.7927 46.5369 54.499 46.4115 54.0584 46.2969C53.6608 46.1894 53.3778 46.0498 53.1987 45.8814C53.0017 45.7059 52.905 45.4767 52.905 45.1794C52.905 44.857 53.0232 44.6098 53.2596 44.4307C53.4817 44.2588 53.7754 44.1729 54.1336 44.1729C54.5849 44.1729 54.9216 44.2767 55.1544 44.4773Z" fill="white"/>
<path d="M58.8563 43.1377C58.8957 43.1055 58.9459 43.0876 59.0032 43.0876C59.0605 43.0876 59.1106 43.1055 59.15 43.1377C59.1966 43.1771 59.2181 43.2309 59.2181 43.2989V44.2911H59.7661C59.8843 44.2911 59.9416 44.3556 59.9416 44.4845C59.9416 44.6206 59.8843 44.6851 59.7661 44.6851H59.2181V47.5184C59.2181 47.6043 59.2396 47.6724 59.2861 47.7297C59.3363 47.8013 59.4151 47.8372 59.5118 47.8372H59.7518C59.8163 47.8372 59.8664 47.8551 59.9094 47.8873C59.9416 47.9303 59.9595 47.9804 59.9595 48.0377C59.9595 48.0879 59.9416 48.1345 59.9094 48.1703C59.8664 48.2133 59.8163 48.2312 59.7518 48.2312H59.4402C59.2324 48.2312 59.0712 48.1595 58.9602 48.0127C58.8527 47.8873 58.799 47.7297 58.799 47.547V44.6887H58.4372C58.3333 44.6887 58.2832 44.6242 58.2832 44.4881C58.2832 44.3627 58.3333 44.2947 58.4372 44.2947H58.799V43.3025C58.7954 43.2309 58.8169 43.1771 58.8563 43.1377Z" fill="#231F20"/>
<path d="M63.4791 44.8105C63.7478 45.183 63.8839 45.6522 63.8839 46.2146C63.8839 46.7734 63.7478 47.2426 63.4791 47.6151C63.1818 48.0342 62.7699 48.2419 62.2434 48.2419C61.7168 48.2419 61.3013 48.0342 61.0005 47.6151C60.7354 47.2426 60.6064 46.7769 60.6064 46.2146C60.6064 45.6522 60.7354 45.1794 61.0005 44.8105C61.3013 44.395 61.7133 44.1837 62.2434 44.1837C62.7663 44.1872 63.1818 44.395 63.4791 44.8105ZM61.3157 45.0827C61.1258 45.3836 61.0291 45.7633 61.0291 46.2182C61.0291 46.6731 61.1258 47.0456 61.3157 47.3464C61.5377 47.6796 61.8458 47.8515 62.2434 47.8515C62.6338 47.8515 62.9383 47.6796 63.1603 47.3464C63.3609 47.0456 63.4541 46.6695 63.4541 46.2182C63.4541 45.7633 63.3573 45.3872 63.1603 45.0827C62.9383 44.746 62.6302 44.5777 62.2434 44.5777C61.8458 44.5777 61.5377 44.746 61.3157 45.0827Z" fill="#231F20"/>
<path d="M67.2403 44.2803C67.2761 44.2481 67.3298 44.2266 67.3871 44.2266C67.4373 44.2266 67.4874 44.2445 67.5268 44.2731C67.5698 44.3125 67.5949 44.3627 67.5949 44.4307V44.7209C67.7059 44.5525 67.8277 44.4307 67.9531 44.3448C68.125 44.2266 68.3148 44.1729 68.5297 44.1729C68.63 44.1729 68.6838 44.2445 68.6838 44.3842C68.6909 44.5275 68.6372 44.6027 68.5226 44.6027C68.3077 44.6027 68.1142 44.6636 67.9423 44.7818C67.7919 44.8856 67.6737 45.0325 67.5949 45.2152V47.9983C67.5949 48.0664 67.5698 48.1308 67.5268 48.1666C67.4874 48.206 67.4373 48.2275 67.3871 48.2275C67.3298 48.2275 67.2761 48.2025 67.2403 48.1666C67.1973 48.1308 67.1758 48.0664 67.1758 47.9983V44.4272C67.1758 44.3663 67.1973 44.3161 67.2403 44.2803Z" fill="#231F20"/>
<path d="M71.9563 46.8808C72.01 46.8628 72.0637 46.8628 72.1246 46.8879C72.1748 46.9058 72.2178 46.9416 72.2392 46.9954C72.2643 47.0563 72.2643 47.1243 72.2392 47.196C72.1067 47.5291 71.9205 47.7798 71.6733 47.9553C71.4226 48.1452 71.1289 48.2347 70.7922 48.2347C70.3194 48.2347 69.9397 48.0305 69.6603 47.6115C69.4024 47.2246 69.2734 46.7661 69.2734 46.2109C69.2734 45.6593 69.4024 45.1829 69.6603 44.8033C69.9397 44.3842 70.3158 44.1729 70.7922 44.1729C71.2721 44.1729 71.6518 44.3806 71.9348 44.8033C72.1963 45.1829 72.3252 45.6593 72.3252 46.2109V46.3256H69.7033C69.7212 46.7267 69.8179 47.067 69.9898 47.3464C70.1904 47.6723 70.4626 47.8371 70.7957 47.8371C71.0644 47.8371 71.29 47.7511 71.4691 47.59C71.6053 47.461 71.7306 47.2783 71.8345 47.0312C71.856 46.9596 71.899 46.9094 71.9563 46.8808ZM71.8811 45.9208C71.856 45.5877 71.7593 45.2868 71.5945 45.0325C71.3868 44.7209 71.1253 44.5633 70.7922 44.5633C70.4662 44.5633 70.2011 44.7173 70.0006 45.0253C69.8358 45.2832 69.7391 45.5769 69.714 45.9208H71.8811Z" fill="#231F20"/>
<path d="M75.6248 44.4057C75.8827 44.5884 76.0153 44.8642 76.0153 45.2403V47.5004C76.0153 47.5757 76.0296 47.6401 76.0726 47.6795C76.1191 47.7297 76.18 47.7547 76.2588 47.7547C76.3161 47.7547 76.3591 47.7762 76.3949 47.8085C76.4272 47.8479 76.4415 47.898 76.4487 47.9482C76.4487 48.0019 76.4343 48.0449 76.4021 48.0879C76.3663 48.1273 76.3161 48.1488 76.2552 48.1488C75.9973 48.1488 75.8218 48.1165 75.7287 48.0485C75.6463 47.9876 75.6069 47.8801 75.6069 47.7368C75.4744 47.873 75.3204 47.984 75.152 48.0628C74.9192 48.1738 74.6577 48.224 74.3604 48.224C73.9628 48.224 73.6584 48.1237 73.4542 47.9303C73.25 47.7404 73.1533 47.4682 73.1533 47.1208C73.1533 46.8091 73.2214 46.5656 73.3611 46.3901C73.5617 46.1465 73.9342 45.9889 74.475 45.9137C74.955 45.8456 75.2595 45.7704 75.3956 45.6916C75.5281 45.6128 75.5962 45.4731 75.5962 45.2725C75.5962 45.0361 75.521 44.8606 75.3777 44.7424C75.2201 44.617 74.9908 44.5561 74.6756 44.5561C74.3747 44.5561 74.1455 44.6278 73.9986 44.7675C73.8625 44.8928 73.7837 45.0719 73.7622 45.3119C73.7551 45.3728 73.7228 45.4194 73.6763 45.4552C73.6369 45.4874 73.5831 45.5018 73.5294 45.4982C73.4757 45.491 73.4291 45.4659 73.3933 45.4265C73.3539 45.3835 73.3396 45.3262 73.3539 45.2582C73.4076 44.8857 73.5473 44.6134 73.7802 44.4272C74.0094 44.2517 74.3067 44.1657 74.6828 44.1657C75.084 44.1729 75.3956 44.2481 75.6248 44.4057ZM75.5962 45.9817C75.5353 46.039 75.4278 46.0963 75.2702 46.1465C75.0804 46.211 74.8189 46.2647 74.4822 46.3113C74.1527 46.3578 73.9163 46.4474 73.773 46.5835C73.644 46.7088 73.5724 46.8915 73.5724 47.1315C73.5724 47.3643 73.6369 47.5398 73.7622 47.6545C73.8912 47.7727 74.0882 47.8407 74.3604 47.8407C74.6685 47.8407 74.9335 47.7762 75.152 47.6545C75.349 47.5434 75.4995 47.3894 75.5962 47.196V45.9817Z" fill="#231F20"/>
<path d="M77.2406 42.7975C77.28 42.7616 77.3265 42.7473 77.3874 42.7473C77.4412 42.7473 77.4877 42.7616 77.5271 42.7975C77.5737 42.8333 77.5952 42.8906 77.5952 42.9586V48.0198C77.5952 48.0879 77.5737 48.1452 77.5271 48.181C77.4877 48.2168 77.4412 48.2312 77.3874 48.2312C77.3265 48.2312 77.28 48.2133 77.2406 48.181C77.1976 48.1345 77.1797 48.0807 77.1797 48.0127V42.9551C77.1797 42.887 77.1976 42.8333 77.2406 42.7975Z" fill="#231F20"/>
<path d="M79.2821 42.8583C79.3394 42.93 79.3681 43.0159 79.3681 43.1234C79.3681 43.2165 79.3394 43.2989 79.2821 43.3741C79.2212 43.4493 79.1352 43.4852 79.0385 43.4852C78.9311 43.4852 78.8487 43.4493 78.7914 43.3741C78.7376 43.3061 78.709 43.2237 78.709 43.1234C78.709 43.0159 78.7376 42.93 78.7914 42.8583C78.8487 42.7831 78.9311 42.7437 79.0385 42.7437C79.1352 42.7473 79.2212 42.7831 79.2821 42.8583ZM78.8881 44.2194C78.9311 44.1836 78.9776 44.1657 79.0385 44.1657C79.0958 44.1657 79.146 44.1836 79.1854 44.2123C79.2284 44.2517 79.2498 44.3018 79.2498 44.3699V47.9983C79.2498 48.0664 79.2284 48.1309 79.1854 48.1667C79.146 48.2097 79.0958 48.2276 79.0385 48.2276C78.9776 48.2276 78.9311 48.2097 78.8881 48.1774C78.8487 48.1309 78.8308 48.0664 78.8308 47.9983V44.3699C78.8308 44.3018 78.8451 44.2588 78.8881 44.2194Z" fill="#231F20"/>
<path d="M80.6506 43.1377C80.6936 43.1055 80.7401 43.0876 80.7938 43.0876C80.8547 43.0876 80.9049 43.1055 80.9443 43.1377C80.9873 43.1771 81.0088 43.2309 81.0088 43.2989V44.2911H81.5568C81.6714 44.2911 81.7287 44.3556 81.7287 44.4845C81.7287 44.6206 81.6714 44.6851 81.5568 44.6851H81.0088V47.5184C81.0088 47.6043 81.0338 47.6724 81.0768 47.7297C81.1306 47.8013 81.2058 47.8372 81.3061 47.8372H81.546C81.6105 47.8372 81.6607 47.8551 81.7001 47.8873C81.7359 47.9303 81.7538 47.9804 81.7538 48.0377C81.7538 48.0879 81.7359 48.1345 81.7001 48.1703C81.6607 48.2133 81.6105 48.2312 81.546 48.2312H81.2308C81.0267 48.2312 80.8691 48.1595 80.7509 48.0127C80.6434 47.8873 80.5933 47.7297 80.5933 47.547V44.6887H80.2351C80.1312 44.6887 80.0811 44.6242 80.0811 44.4881C80.0811 44.3627 80.1312 44.2947 80.2351 44.2947H80.5933V43.3025C80.5933 43.2309 80.6112 43.1771 80.6506 43.1377Z" fill="#231F20"/>
<path d="M82.1405 44.2983C82.1655 44.2518 82.2049 44.216 82.2586 44.1909C82.3124 44.1622 82.3661 44.1551 82.4198 44.1694C82.4736 44.1837 82.513 44.2195 82.5345 44.284L83.6162 47.257L84.6836 44.3055C84.7015 44.2482 84.7409 44.2016 84.8054 44.1837C84.8555 44.1658 84.9093 44.1622 84.9666 44.1766C85.0239 44.1909 85.0669 44.216 85.0991 44.2625C85.1313 44.3091 85.1349 44.3628 85.1134 44.4165L83.6054 48.4139C83.5016 48.6575 83.3834 48.8402 83.2365 48.9584C83.1004 49.0766 82.9392 49.1375 82.7565 49.1375H82.4557C82.3912 49.1375 82.3375 49.116 82.3052 49.0766C82.273 49.0336 82.2551 48.9942 82.2551 48.9405C82.2551 48.8939 82.273 48.8437 82.3052 48.8079C82.3375 48.7685 82.3912 48.7506 82.4557 48.7506H82.7565C82.8532 48.7506 82.932 48.7148 82.9894 48.6575C83.0395 48.6073 83.0932 48.507 83.1577 48.3674L83.3905 47.8372L82.144 44.4739C82.1154 44.4094 82.1154 44.3557 82.1405 44.2983Z" fill="#231F20"/>
<path d="M88.4885 43.1377C88.5279 43.1055 88.5816 43.0876 88.6389 43.0876C88.6962 43.0876 88.7464 43.1055 88.7858 43.1377C88.8287 43.1771 88.8502 43.2309 88.8502 43.2989V44.2911H89.3983C89.5129 44.2911 89.5738 44.3556 89.5738 44.4845C89.5738 44.6206 89.5129 44.6851 89.3983 44.6851H88.8502V47.5184C88.8502 47.6043 88.8753 47.6724 88.9183 47.7297C88.972 47.8013 89.0472 47.8372 89.1475 47.8372H89.3875C89.452 47.8372 89.5021 47.8551 89.5415 47.8873C89.5774 47.9303 89.5953 47.9804 89.5953 48.0377C89.5953 48.0879 89.5774 48.1345 89.5415 48.1703C89.5021 48.2133 89.452 48.2312 89.3875 48.2312H89.0723C88.8646 48.2312 88.707 48.1595 88.5959 48.0127C88.4849 47.8873 88.4347 47.7297 88.4347 47.547V44.6887H88.0694C87.9691 44.6887 87.9189 44.6242 87.9189 44.4881C87.9189 44.3627 87.9691 44.2947 88.0694 44.2947H88.4347V43.3025C88.4312 43.2309 88.4491 43.1771 88.4885 43.1377Z" fill="#231F20"/>
<path d="M90.4505 42.8046C90.4935 42.7652 90.5401 42.7473 90.5974 42.7473C90.6547 42.7473 90.7013 42.7652 90.7407 42.8046C90.7837 42.8476 90.8087 42.9049 90.8087 42.9766V44.7639C90.9556 44.5812 91.1096 44.4487 91.2744 44.3484C91.4821 44.2302 91.7149 44.1729 91.9764 44.1729C92.3382 44.1729 92.6212 44.2911 92.8361 44.5203C93.0331 44.7317 93.1334 44.986 93.1334 45.3012V48.0019C93.1334 48.07 93.1083 48.1345 93.0617 48.181C93.0223 48.2168 92.9794 48.2312 92.9185 48.2312C92.8612 48.2312 92.811 48.2133 92.7716 48.181C92.7322 48.1345 92.7071 48.07 92.7071 48.0019V45.3012C92.7071 45.0934 92.6498 44.9251 92.5209 44.7926C92.3883 44.6457 92.2057 44.5669 91.9728 44.5669C91.74 44.5669 91.5215 44.6314 91.3245 44.7675C91.1454 44.8893 90.9663 45.0755 90.8051 45.3227V47.9948C90.8051 48.0736 90.7801 48.1345 90.7371 48.1846C90.6977 48.2204 90.6511 48.2383 90.5938 48.2455C90.5365 48.2455 90.4899 48.2204 90.447 48.1846C90.404 48.138 90.3896 48.0807 90.3896 48.0055V42.9801C90.3932 42.9049 90.4076 42.8476 90.4505 42.8046Z" fill="#231F20"/>
<path d="M94.3587 44.2803C94.3981 44.2481 94.4447 44.2266 94.5056 44.2266C94.5557 44.2266 94.6059 44.2445 94.6453 44.2731C94.6883 44.3125 94.7134 44.3627 94.7134 44.4307V44.7209C94.8244 44.5525 94.9426 44.4307 95.0751 44.3448C95.2435 44.2266 95.4333 44.1729 95.6446 44.1729C95.7449 44.1729 95.7987 44.2445 95.7987 44.3842C95.8058 44.5275 95.7521 44.6027 95.6375 44.6027C95.4261 44.6027 95.2327 44.6636 95.0608 44.7818C94.9104 44.8856 94.7922 45.0325 94.7134 45.2152V47.9983C94.7134 48.0664 94.6883 48.1308 94.6453 48.1666C94.6059 48.206 94.5557 48.2275 94.5056 48.2275C94.4447 48.2275 94.3981 48.2025 94.3587 48.1666C94.3158 48.1308 94.2979 48.0664 94.2979 47.9983V44.4272C94.2979 44.3663 94.3158 44.3161 94.3587 44.2803Z" fill="#231F20"/>
<path d="M99.29 44.8105C99.5586 45.183 99.6912 45.6522 99.6912 46.2146C99.6912 46.7734 99.5586 47.2426 99.29 47.6151C98.9891 48.0342 98.5808 48.2419 98.0542 48.2419C97.5277 48.2419 97.1086 48.0342 96.8149 47.6151C96.5498 47.2426 96.4209 46.7769 96.4209 46.2146C96.4209 45.6522 96.5534 45.1794 96.8149 44.8105C97.1086 44.395 97.5313 44.1837 98.0542 44.1837C98.5808 44.1872 98.9927 44.395 99.29 44.8105ZM97.1301 45.0827C96.9367 45.3836 96.8436 45.7633 96.8436 46.2182C96.8436 46.6731 96.9367 47.0456 97.1301 47.3464C97.3522 47.6796 97.6567 47.8515 98.0578 47.8515C98.4518 47.8515 98.7563 47.6796 98.9712 47.3464C99.1754 47.0456 99.2685 46.6695 99.2685 46.2182C99.2685 45.7633 99.1718 45.3872 98.9712 45.0827C98.7527 44.746 98.4483 44.5777 98.0578 44.5777C97.6567 44.5777 97.3522 44.746 97.1301 45.0827Z" fill="#231F20"/>
<path d="M103.377 48.1129C103.338 48.1523 103.291 48.1666 103.234 48.1666C103.173 48.1666 103.126 48.1487 103.087 48.1129C103.044 48.0663 103.023 48.0126 103.023 47.9445V47.6365C102.883 47.812 102.718 47.9445 102.535 48.0484C102.321 48.1738 102.091 48.2311 101.837 48.2311C101.482 48.2311 101.199 48.1129 100.995 47.8801C100.809 47.6616 100.716 47.4037 100.716 47.1064V44.3842C100.716 44.3018 100.734 44.2445 100.773 44.1979C100.816 44.1549 100.863 44.1334 100.924 44.1334C100.974 44.1334 101.02 44.1585 101.063 44.1979C101.103 44.2445 101.124 44.3018 101.124 44.3842V47.1064C101.124 47.2998 101.185 47.4682 101.307 47.6078C101.436 47.7547 101.608 47.8335 101.833 47.8335C102.063 47.8335 102.274 47.7619 102.478 47.6258C102.675 47.504 102.858 47.3249 103.019 47.0849V44.3842C103.019 44.3018 103.04 44.2445 103.083 44.1979C103.123 44.1549 103.169 44.1334 103.23 44.1334C103.288 44.1334 103.338 44.1585 103.374 44.1979C103.42 44.2445 103.438 44.3018 103.438 44.3842V47.9445C103.442 48.0162 103.42 48.0699 103.377 48.1129Z" fill="#231F20"/>
<path d="M107.218 44.284C107.257 44.2482 107.307 44.2339 107.365 44.2339C107.425 44.2339 107.472 44.2518 107.515 44.284C107.562 44.3198 107.579 44.3771 107.579 44.4416V47.9125C107.579 48.2384 107.451 48.5214 107.193 48.7435C106.903 49.0013 106.501 49.1267 105.996 49.1267C105.638 49.1267 105.344 49.073 105.101 48.9476C104.854 48.8294 104.667 48.6503 104.549 48.4103C104.513 48.353 104.506 48.2921 104.531 48.2348C104.542 48.1811 104.574 48.1381 104.632 48.113C104.682 48.0808 104.728 48.0701 104.778 48.088C104.832 48.0951 104.875 48.1274 104.904 48.1847C104.986 48.3638 105.108 48.4927 105.28 48.5823C105.463 48.6826 105.706 48.7327 106.007 48.7327C106.387 48.7327 106.673 48.6467 106.881 48.4748C107.071 48.3244 107.16 48.1345 107.16 47.9125V47.497C107.071 47.6581 106.931 47.805 106.745 47.9125C106.523 48.0414 106.279 48.1059 106.007 48.1059C105.495 48.1059 105.097 47.9017 104.811 47.497C104.556 47.1424 104.435 46.691 104.435 46.1358C104.435 45.6021 104.556 45.1544 104.811 44.7819C105.101 44.37 105.498 44.1622 106.007 44.1622C106.261 44.1622 106.483 44.2124 106.673 44.3163C106.86 44.4237 107.024 44.5921 107.157 44.8106V44.4309C107.157 44.3771 107.178 44.3198 107.218 44.284ZM105.112 45.0613C104.929 45.3586 104.836 45.7132 104.836 46.1358C104.836 46.5836 104.929 46.9489 105.112 47.2319C105.316 47.5507 105.613 47.7119 105.996 47.7119C106.376 47.7119 106.666 47.5507 106.877 47.2319C107.067 46.9489 107.157 46.5836 107.157 46.1358C107.157 45.7096 107.067 45.355 106.877 45.0613C106.663 44.7282 106.372 44.5634 105.996 44.5634C105.62 44.5634 105.326 44.7282 105.112 45.0613Z" fill="#231F20"/>
<path d="M108.813 42.8046C108.856 42.7652 108.906 42.7473 108.96 42.7473C109.013 42.7473 109.06 42.7652 109.099 42.8046C109.146 42.8476 109.167 42.9049 109.167 42.9766V44.7639C109.314 44.5812 109.465 44.4487 109.633 44.3484C109.841 44.2302 110.074 44.1729 110.332 44.1729C110.693 44.1729 110.976 44.2911 111.191 44.5203C111.388 44.7317 111.489 44.986 111.489 45.3012V48.0019C111.489 48.07 111.463 48.1345 111.42 48.181C111.377 48.2168 111.335 48.2312 111.277 48.2312C111.22 48.2312 111.17 48.2133 111.13 48.181C111.087 48.1345 111.069 48.07 111.069 48.0019V45.3012C111.069 45.0934 111.005 44.9251 110.883 44.7926C110.747 44.6457 110.561 44.5669 110.332 44.5669C110.099 44.5669 109.887 44.6314 109.683 44.7675C109.501 44.8893 109.329 45.0755 109.164 45.3227V47.9948C109.164 48.0736 109.139 48.1345 109.096 48.1846C109.056 48.2204 109.01 48.2383 108.956 48.2455C108.902 48.2455 108.852 48.2204 108.809 48.1846C108.77 48.138 108.752 48.0807 108.752 48.0055V42.9801C108.756 42.9049 108.773 42.8476 108.813 42.8046Z" fill="#231F20"/>
<path d="M115.459 42.8583C115.516 42.93 115.541 43.0159 115.541 43.1234C115.541 43.2165 115.512 43.2989 115.459 43.3741C115.394 43.4493 115.312 43.4852 115.208 43.4852C115.1 43.4852 115.018 43.4493 114.961 43.3741C114.907 43.3061 114.882 43.2237 114.882 43.1234C114.882 43.0159 114.907 42.93 114.961 42.8583C115.018 42.7831 115.1 42.7437 115.208 42.7437C115.312 42.7473 115.394 42.7831 115.459 42.8583ZM115.061 44.2194C115.1 44.1836 115.15 44.1657 115.208 44.1657C115.269 44.1657 115.315 44.1836 115.358 44.2123C115.401 44.2517 115.423 44.3018 115.423 44.3699V47.9983C115.423 48.0664 115.401 48.1309 115.358 48.1667C115.315 48.2097 115.272 48.2276 115.208 48.2276C115.15 48.2276 115.1 48.2097 115.061 48.1774C115.022 48.1309 115 48.0664 115 47.9983V44.3699C115 44.3018 115.022 44.2588 115.061 44.2194Z" fill="#231F20"/>
<path d="M116.645 44.284C116.681 44.2482 116.735 44.2267 116.792 44.2267C116.846 44.2267 116.892 44.2482 116.932 44.284C116.978 44.327 117 44.3843 117 44.4559V44.8929C117.132 44.6673 117.294 44.4882 117.494 44.3628C117.702 44.2303 117.949 44.1694 118.232 44.1694C118.594 44.1694 118.877 44.2876 119.095 44.5168C119.289 44.7281 119.385 44.9825 119.385 45.2977V47.9984C119.385 48.0665 119.364 48.1309 119.321 48.1775C119.285 48.2133 119.235 48.2276 119.181 48.2276C119.124 48.2276 119.077 48.2097 119.034 48.1775C118.999 48.1309 118.977 48.0665 118.977 47.9984V45.2977C118.977 45.0899 118.913 44.9216 118.787 44.789C118.647 44.6422 118.465 44.5634 118.236 44.5634C117.981 44.5634 117.756 44.635 117.551 44.7747C117.34 44.9216 117.157 45.1508 117.003 45.4517V47.9877C117.003 48.0665 116.982 48.1273 116.935 48.1775C116.896 48.2133 116.849 48.2312 116.796 48.2384C116.738 48.2384 116.685 48.2133 116.649 48.1775C116.606 48.1309 116.588 48.0736 116.588 47.9984V44.4559C116.588 44.3843 116.602 44.327 116.645 44.284Z" fill="#231F20"/>
<path d="M120.61 44.284C120.649 44.2482 120.699 44.2267 120.757 44.2267C120.807 44.2267 120.857 44.2482 120.893 44.284C120.939 44.327 120.961 44.3843 120.961 44.4559V44.8929C121.086 44.6673 121.254 44.4882 121.451 44.3628C121.663 44.2303 121.906 44.1694 122.186 44.1694C122.548 44.1694 122.834 44.2876 123.045 44.5168C123.242 44.7281 123.339 44.9825 123.339 45.2977V47.9984C123.339 48.0665 123.318 48.1309 123.268 48.1775C123.228 48.2133 123.185 48.2276 123.131 48.2276C123.074 48.2276 123.02 48.2097 122.985 48.1775C122.942 48.1309 122.924 48.0665 122.924 47.9984V45.2977C122.924 45.0899 122.859 44.9216 122.737 44.789C122.598 44.6422 122.411 44.5634 122.182 44.5634C121.928 44.5634 121.706 44.635 121.502 44.7747C121.294 44.9216 121.115 45.1508 120.954 45.4517V47.9877C120.954 48.0665 120.929 48.1273 120.886 48.1775C120.846 48.2133 120.8 48.2312 120.749 48.2384C120.692 48.2384 120.642 48.2133 120.603 48.1775C120.567 48.1309 120.538 48.0736 120.538 47.9984V44.4559C120.549 44.3843 120.574 44.327 120.61 44.284Z" fill="#231F20"/>
<path d="M127.233 44.8105C127.502 45.183 127.638 45.6522 127.638 46.2146C127.638 46.7734 127.502 47.2426 127.233 47.6151C126.936 48.0342 126.524 48.2419 125.998 48.2419C125.471 48.2419 125.056 48.0342 124.758 47.6151C124.497 47.2426 124.364 46.7769 124.364 46.2146C124.364 45.6522 124.497 45.1794 124.758 44.8105C125.056 44.395 125.471 44.1837 125.998 44.1837C126.524 44.1872 126.936 44.395 127.233 44.8105ZM125.07 45.0827C124.88 45.3836 124.783 45.7633 124.783 46.2182C124.783 46.6731 124.88 47.0456 125.07 47.3464C125.292 47.6796 125.607 47.8515 125.998 47.8515C126.392 47.8515 126.696 47.6796 126.915 47.3464C127.115 47.0456 127.212 46.6695 127.212 46.2182C127.212 45.7633 127.112 45.3872 126.915 45.0827C126.696 44.746 126.392 44.5777 125.998 44.5777C125.607 44.5777 125.292 44.746 125.07 45.0827Z" fill="#231F20"/>
<path d="M128.207 44.4344C128.189 44.3807 128.196 44.3234 128.228 44.2804C128.261 44.2338 128.304 44.2052 128.357 44.1873C128.411 44.1694 128.468 44.1694 128.511 44.1873C128.565 44.2052 128.604 44.2482 128.626 44.309L129.701 47.5471L130.779 44.309C130.797 44.2517 130.825 44.2052 130.883 44.1873C130.933 44.1694 130.986 44.1694 131.044 44.1873C131.101 44.2052 131.148 44.2338 131.173 44.2804C131.208 44.3234 131.219 44.3807 131.198 44.4344L129.958 48.002C129.912 48.156 129.826 48.2312 129.697 48.2312C129.568 48.2312 129.489 48.156 129.446 48.002L128.207 44.4344Z" fill="#231F20"/>
<path d="M134.364 44.4057C134.622 44.5884 134.751 44.8642 134.751 45.2403V47.5004C134.751 47.5757 134.772 47.6401 134.811 47.6795C134.858 47.7297 134.919 47.7547 134.998 47.7547C135.055 47.7547 135.098 47.7762 135.134 47.8085C135.166 47.8479 135.184 47.898 135.188 47.9482C135.188 48.0019 135.173 48.0449 135.141 48.0879C135.105 48.1273 135.059 48.1488 134.994 48.1488C134.74 48.1488 134.564 48.1165 134.468 48.0485C134.389 47.9876 134.349 47.8801 134.349 47.7368C134.213 47.873 134.063 47.984 133.891 48.0628C133.662 48.1738 133.4 48.224 133.103 48.224C132.702 48.224 132.397 48.1237 132.197 47.9303C131.996 47.7404 131.899 47.4682 131.899 47.1208C131.899 46.8091 131.967 46.5656 132.107 46.3901C132.311 46.1465 132.68 45.9889 133.221 45.9137C133.698 45.8456 134.006 45.7704 134.142 45.6916C134.278 45.6128 134.342 45.4731 134.342 45.2725C134.342 45.0361 134.271 44.8606 134.124 44.7424C133.966 44.617 133.733 44.5561 133.425 44.5561C133.121 44.5561 132.895 44.6278 132.745 44.7675C132.609 44.8928 132.53 45.0719 132.508 45.3119C132.501 45.3728 132.473 45.4194 132.422 45.4552C132.387 45.4874 132.336 45.5018 132.279 45.4982C132.225 45.491 132.179 45.4659 132.143 45.4265C132.104 45.3835 132.093 45.3262 132.104 45.2582C132.157 44.8857 132.301 44.6134 132.533 44.4272C132.763 44.2517 133.056 44.1657 133.432 44.1657C133.819 44.1729 134.135 44.2481 134.364 44.4057ZM134.335 45.9817C134.274 46.039 134.167 46.0963 134.009 46.1465C133.816 46.211 133.558 46.2647 133.221 46.3113C132.888 46.3578 132.655 46.4474 132.516 46.5835C132.383 46.7088 132.311 46.8915 132.311 47.1315C132.311 47.3643 132.376 47.5398 132.501 47.6545C132.63 47.7727 132.834 47.8407 133.103 47.8407C133.411 47.8407 133.672 47.7762 133.891 47.6545C134.092 47.5434 134.238 47.3894 134.339 47.196V45.9817H134.335Z" fill="#231F20"/>
<path d="M136.158 43.1377C136.197 43.1055 136.248 43.0876 136.305 43.0876C136.362 43.0876 136.412 43.1055 136.452 43.1377C136.498 43.1771 136.52 43.2309 136.52 43.2989V44.2911H137.068C137.19 44.2911 137.243 44.3556 137.243 44.4845C137.243 44.6206 137.19 44.6851 137.068 44.6851H136.52V47.5184C136.52 47.6043 136.541 47.6724 136.588 47.7297C136.642 47.8013 136.717 47.8372 136.814 47.8372H137.054C137.114 47.8372 137.168 47.8551 137.208 47.8873C137.243 47.9303 137.261 47.9804 137.261 48.0377C137.261 48.0879 137.243 48.1345 137.208 48.1703C137.168 48.2133 137.114 48.2312 137.054 48.2312H136.742C136.534 48.2312 136.377 48.1595 136.262 48.0127C136.154 47.8873 136.104 47.7297 136.104 47.547V44.6887H135.739C135.635 44.6887 135.585 44.6242 135.585 44.4881C135.585 44.3627 135.635 44.2947 135.739 44.2947H136.104V43.3025C136.101 43.2309 136.119 43.1771 136.158 43.1377Z" fill="#231F20"/>
<path d="M138.584 42.8583C138.645 42.93 138.67 43.0159 138.67 43.1234C138.67 43.2165 138.645 43.2989 138.584 43.3741C138.524 43.4493 138.441 43.4852 138.337 43.4852C138.23 43.4852 138.147 43.4493 138.09 43.3741C138.036 43.3061 138.008 43.2237 138.008 43.1234C138.008 43.0159 138.036 42.93 138.09 42.8583C138.147 42.7831 138.23 42.7437 138.337 42.7437C138.441 42.7473 138.524 42.7831 138.584 42.8583ZM138.19 44.2194C138.23 44.1836 138.276 44.1657 138.337 44.1657C138.395 44.1657 138.445 44.1836 138.484 44.2123C138.531 44.2517 138.552 44.3018 138.552 44.3699V47.9983C138.552 48.0664 138.531 48.1309 138.484 48.1667C138.445 48.2097 138.395 48.2276 138.337 48.2276C138.276 48.2276 138.23 48.2097 138.19 48.1774C138.151 48.1309 138.133 48.0664 138.133 47.9983V44.3699C138.133 44.3018 138.151 44.2588 138.19 44.2194Z" fill="#231F20"/>
<path d="M139.264 44.4344C139.246 44.3807 139.253 44.3234 139.285 44.2804C139.317 44.2338 139.357 44.2052 139.41 44.1873C139.468 44.1694 139.521 44.1694 139.572 44.1873C139.625 44.2052 139.658 44.2482 139.686 44.309L140.761 47.5471L141.835 44.309C141.853 44.2517 141.885 44.2052 141.943 44.1873C141.993 44.1694 142.047 44.1694 142.104 44.1873C142.161 44.2052 142.204 44.2338 142.233 44.2804C142.269 44.3234 142.276 44.3807 142.258 44.4344L141.019 48.002C140.968 48.156 140.883 48.2312 140.757 48.2312C140.628 48.2312 140.546 48.156 140.503 48.002L139.264 44.4344Z" fill="#231F20"/>
<path d="M145.637 46.8808C145.687 46.8628 145.744 46.8628 145.802 46.8879C145.855 46.9058 145.895 46.9416 145.916 46.9954C145.945 47.0563 145.945 47.1243 145.916 47.196C145.784 47.5291 145.601 47.7798 145.354 47.9553C145.107 48.1452 144.81 48.2347 144.473 48.2347C143.996 48.2347 143.62 48.0305 143.337 47.6115C143.083 47.2246 142.954 46.7661 142.954 46.2109C142.954 45.6593 143.083 45.1829 143.337 44.8033C143.62 44.3842 143.993 44.1729 144.473 44.1729C144.946 44.1729 145.329 44.3806 145.615 44.8033C145.877 45.1829 145.999 45.6593 145.999 46.2109V46.3256H143.377C143.395 46.7267 143.491 47.067 143.667 47.3464C143.867 47.6723 144.136 47.8371 144.473 47.8371C144.738 47.8371 144.964 47.7511 145.139 47.59C145.279 47.461 145.401 47.2783 145.508 47.0312C145.533 46.9596 145.576 46.9094 145.637 46.8808ZM145.562 45.9208C145.533 45.5877 145.436 45.2868 145.275 45.0325C145.071 44.7209 144.802 44.5633 144.473 44.5633C144.143 44.5633 143.878 44.7173 143.678 45.0253C143.513 45.2832 143.42 45.5769 143.395 45.9208H145.562Z" fill="#231F20"/>
<path d="M151.79 46.8808C151.844 46.8628 151.901 46.8628 151.959 46.8879C152.009 46.9058 152.052 46.9416 152.073 46.9954C152.098 47.0563 152.098 47.1243 152.073 47.196C151.944 47.5291 151.754 47.7798 151.514 47.9553C151.26 48.1452 150.97 48.2347 150.633 48.2347C150.157 48.2347 149.774 48.0305 149.498 47.6115C149.244 47.2246 149.118 46.7661 149.118 46.2109C149.118 45.6593 149.244 45.1829 149.498 44.8033C149.777 44.3842 150.157 44.1729 150.633 44.1729C151.11 44.1729 151.489 44.3806 151.776 44.8033C152.034 45.1829 152.159 45.6593 152.159 46.2109V46.3256H149.537C149.555 46.7267 149.652 47.067 149.827 47.3464C150.028 47.6723 150.297 47.8371 150.633 47.8371C150.895 47.8371 151.124 47.7511 151.303 47.59C151.439 47.461 151.561 47.2783 151.672 47.0312C151.69 46.9596 151.733 46.9094 151.79 46.8808ZM151.719 45.9208C151.69 45.5877 151.597 45.2868 151.428 45.0325C151.224 44.7209 150.956 44.5633 150.63 44.5633C150.297 44.5633 150.032 44.7173 149.831 45.0253C149.67 45.2832 149.573 45.5769 149.548 45.9208H151.719Z" fill="#231F20"/>
<path d="M156.157 47.941C156.153 48.0198 156.128 48.0771 156.085 48.1201C156.049 48.1559 156.003 48.1702 155.946 48.1702C155.895 48.1666 155.849 48.1416 155.806 48.1058C155.77 48.0699 155.752 48.009 155.752 47.941V47.6365C155.652 47.8013 155.509 47.941 155.322 48.0556C155.104 48.181 154.86 48.2454 154.592 48.2454C154.079 48.2454 153.682 48.0377 153.395 47.6186C153.141 47.2461 153.016 46.7805 153.016 46.2181C153.016 45.6557 153.145 45.1829 153.395 44.814C153.682 44.3985 154.079 44.1872 154.592 44.1872C154.846 44.1872 155.064 44.2409 155.251 44.3448C155.444 44.4487 155.609 44.6098 155.749 44.8319V42.9837C155.749 42.912 155.77 42.8547 155.802 42.8117C155.849 42.7759 155.892 42.7616 155.949 42.7616C156.007 42.7616 156.053 42.7831 156.089 42.8153C156.135 42.8619 156.153 42.9192 156.153 42.9944V47.941H156.157ZM153.707 45.0827C153.524 45.3835 153.431 45.7632 153.431 46.2181C153.431 46.673 153.524 47.0455 153.707 47.3464C153.918 47.6795 154.208 47.8514 154.588 47.8514C154.964 47.8514 155.251 47.6795 155.466 47.3464C155.648 47.0491 155.749 46.673 155.749 46.2181C155.749 45.7632 155.652 45.3871 155.466 45.0827C155.254 44.746 154.964 44.5776 154.588 44.5776C154.212 44.5776 153.918 44.746 153.707 45.0827Z" fill="#231F20"/>
<path d="M159.971 48.1129C159.928 48.1523 159.882 48.1666 159.821 48.1666C159.763 48.1666 159.717 48.1487 159.674 48.1129C159.635 48.0663 159.617 48.0126 159.617 47.9445V47.6365C159.47 47.812 159.309 47.9445 159.126 48.0484C158.907 48.1738 158.675 48.2311 158.424 48.2311C158.076 48.2311 157.793 48.1129 157.582 47.8801C157.399 47.6616 157.303 47.4037 157.303 47.1064V44.3842C157.303 44.3018 157.328 44.2445 157.364 44.1979C157.403 44.1549 157.453 44.1334 157.51 44.1334C157.564 44.1334 157.611 44.1585 157.654 44.1979C157.697 44.2445 157.718 44.3018 157.718 44.3842V47.1064C157.718 47.2998 157.779 47.4682 157.901 47.6078C158.03 47.7547 158.202 47.8335 158.424 47.8335C158.653 47.8335 158.868 47.7619 159.072 47.6258C159.269 47.504 159.448 47.3249 159.617 47.0849V44.3842C159.617 44.3018 159.635 44.2445 159.674 44.1979C159.717 44.1549 159.763 44.1334 159.821 44.1334C159.882 44.1334 159.928 44.1585 159.971 44.1979C160.014 44.2445 160.036 44.3018 160.036 44.3842V47.9445C160.036 48.0162 160.014 48.0699 159.971 48.1129Z" fill="#231F20"/>
<path d="M162.686 44.1729C163.08 44.1729 163.402 44.2731 163.668 44.4701C163.882 44.6421 164.033 44.8498 164.104 45.1041C164.115 45.165 164.105 45.2188 164.065 45.2689C164.036 45.3155 163.99 45.3405 163.933 45.362C163.875 45.3764 163.818 45.3692 163.768 45.3405C163.71 45.3155 163.675 45.2689 163.66 45.2009C163.592 44.9824 163.481 44.8176 163.32 44.7101C163.155 44.6098 162.94 44.5633 162.657 44.5633C162.281 44.5633 161.988 44.728 161.783 45.0683C161.604 45.362 161.515 45.7417 161.515 46.2002C161.515 46.673 161.604 47.0563 161.783 47.3536C161.988 47.6723 162.278 47.8371 162.657 47.8371C162.976 47.8371 163.22 47.787 163.381 47.6795C163.549 47.5721 163.671 47.3965 163.75 47.153C163.768 47.0849 163.807 47.0348 163.872 47.0097C163.925 46.9846 163.979 46.981 164.04 46.9954C164.101 47.0097 164.147 47.0419 164.173 47.0885C164.205 47.1386 164.212 47.196 164.18 47.2676C164.051 47.5649 163.886 47.7905 163.693 47.941C163.442 48.138 163.109 48.2311 162.693 48.2311C162.156 48.2311 161.744 48.027 161.465 47.6186C161.217 47.264 161.096 46.7948 161.096 46.2109C161.096 45.6486 161.221 45.1722 161.472 44.8033C161.762 44.3806 162.167 44.1729 162.686 44.1729Z" fill="#231F20"/>
<path d="M167.408 44.4057C167.666 44.5884 167.795 44.8642 167.795 45.2403V47.5004C167.795 47.5757 167.816 47.6401 167.855 47.6795C167.898 47.7297 167.963 47.7547 168.042 47.7547C168.095 47.7547 168.142 47.7762 168.174 47.8085C168.206 47.8479 168.224 47.898 168.228 47.9482C168.228 48.0019 168.214 48.0449 168.181 48.0879C168.146 48.1273 168.099 48.1488 168.035 48.1488C167.78 48.1488 167.605 48.1165 167.504 48.0485C167.426 47.9876 167.383 47.8801 167.383 47.7368C167.25 47.873 167.1 47.984 166.931 48.0628C166.698 48.1738 166.437 48.224 166.143 48.224C165.739 48.224 165.434 48.1237 165.233 47.9303C165.033 47.7404 164.933 47.4682 164.933 47.1208C164.933 46.8091 165.001 46.5656 165.14 46.3901C165.348 46.1465 165.717 45.9889 166.254 45.9137C166.731 45.8456 167.039 45.7704 167.178 45.6916C167.311 45.6128 167.379 45.4731 167.379 45.2725C167.379 45.0361 167.304 44.8606 167.157 44.7424C167.003 44.617 166.767 44.5561 166.459 44.5561C166.154 44.5561 165.925 44.6278 165.778 44.7675C165.645 44.8928 165.567 45.0719 165.542 45.3119C165.534 45.3728 165.506 45.4194 165.456 45.4552C165.416 45.4874 165.366 45.5018 165.312 45.4982C165.259 45.491 165.216 45.4659 165.176 45.4265C165.14 45.3835 165.13 45.3262 165.14 45.2582C165.191 44.8857 165.337 44.6134 165.567 44.4272C165.792 44.2517 166.097 44.1657 166.469 44.1657C166.863 44.1729 167.182 44.2481 167.408 44.4057ZM167.383 45.9817C167.318 46.039 167.207 46.0963 167.053 46.1465C166.863 46.211 166.602 46.2647 166.265 46.3113C165.932 46.3578 165.696 46.4474 165.556 46.5835C165.427 46.7088 165.355 46.8915 165.355 47.1315C165.355 47.3643 165.42 47.5398 165.542 47.6545C165.674 47.7727 165.871 47.8407 166.147 47.8407C166.451 47.8407 166.713 47.7762 166.935 47.6545C167.128 47.5434 167.279 47.3894 167.383 47.196V45.9817Z" fill="#231F20"/>
<path d="M169.202 43.1377C169.245 43.1055 169.295 43.0876 169.352 43.0876C169.41 43.0876 169.46 43.1055 169.499 43.1377C169.542 43.1771 169.567 43.2309 169.567 43.2989V44.2911H170.112C170.226 44.2911 170.284 44.3556 170.284 44.4845C170.284 44.6206 170.226 44.6851 170.112 44.6851H169.567V47.5184C169.567 47.6043 169.589 47.6724 169.632 47.7297C169.686 47.8013 169.764 47.8372 169.861 47.8372H170.097C170.162 47.8372 170.212 47.8551 170.252 47.8873C170.287 47.9303 170.302 47.9804 170.302 48.0377C170.302 48.0879 170.287 48.1345 170.252 48.1703C170.209 48.2133 170.162 48.2312 170.097 48.2312H169.782C169.578 48.2312 169.417 48.1595 169.306 48.0127C169.198 47.8873 169.145 47.7297 169.145 47.547V44.6887H168.783C168.679 44.6887 168.629 44.6242 168.629 44.4881C168.629 44.3627 168.679 44.2947 168.783 44.2947H169.145V43.3025C169.145 43.2309 169.163 43.1771 169.202 43.1377Z" fill="#231F20"/>
<path d="M171.631 42.8583C171.685 42.93 171.717 43.0159 171.717 43.1234C171.717 43.2165 171.685 43.2989 171.631 43.3741C171.567 43.4493 171.485 43.4852 171.381 43.4852C171.273 43.4852 171.191 43.4493 171.133 43.3741C171.083 43.3061 171.055 43.2237 171.055 43.1234C171.055 43.0159 171.08 42.93 171.133 42.8583C171.191 42.7831 171.273 42.7437 171.381 42.7437C171.485 42.7473 171.567 42.7831 171.631 42.8583ZM171.23 44.2194C171.273 44.1836 171.32 44.1657 171.377 44.1657C171.438 44.1657 171.485 44.1836 171.528 44.2123C171.57 44.2517 171.596 44.3018 171.596 44.3699V47.9983C171.596 48.0664 171.57 48.1309 171.528 48.1667C171.485 48.2097 171.438 48.2276 171.377 48.2276C171.32 48.2276 171.27 48.2097 171.23 48.1774C171.194 48.1309 171.176 48.0664 171.176 47.9983V44.3699C171.176 44.3018 171.194 44.2588 171.23 44.2194Z" fill="#231F20"/>
<path d="M175.474 44.8105C175.742 45.183 175.871 45.6522 175.871 46.2146C175.871 46.7734 175.742 47.2426 175.474 47.6151C175.176 48.0342 174.764 48.2419 174.238 48.2419C173.708 48.2419 173.296 48.0342 172.995 47.6151C172.733 47.2426 172.604 46.7769 172.604 46.2146C172.604 45.6522 172.733 45.1794 172.995 44.8105C173.296 44.395 173.711 44.1837 174.238 44.1837C174.761 44.1872 175.173 44.395 175.474 44.8105ZM173.31 45.0827C173.117 45.3836 173.024 45.7633 173.024 46.2182C173.024 46.6731 173.117 47.0456 173.31 47.3464C173.529 47.6796 173.84 47.8515 174.238 47.8515C174.628 47.8515 174.933 47.6796 175.155 47.3464C175.352 47.0456 175.456 46.6695 175.456 46.2182C175.456 45.7633 175.352 45.3872 175.155 45.0827C174.933 44.746 174.632 44.5777 174.238 44.5777C173.84 44.5777 173.529 44.746 173.31 45.0827Z" fill="#231F20"/>
<path d="M176.952 44.284C176.995 44.2482 177.042 44.2267 177.103 44.2267C177.153 44.2267 177.199 44.2482 177.242 44.284C177.285 44.327 177.307 44.3843 177.307 44.4559V44.8929C177.439 44.6673 177.6 44.4882 177.801 44.3628C178.012 44.2303 178.252 44.1694 178.532 44.1694C178.897 44.1694 179.184 44.2876 179.395 44.5168C179.592 44.7281 179.689 44.9825 179.689 45.2977V47.9984C179.689 48.0665 179.667 48.1309 179.624 48.1775C179.578 48.2133 179.535 48.2276 179.481 48.2276C179.427 48.2276 179.374 48.2097 179.338 48.1775C179.295 48.1309 179.277 48.0665 179.277 47.9984V45.2977C179.277 45.0899 179.216 44.9216 179.087 44.789C178.951 44.6422 178.772 44.5634 178.532 44.5634C178.281 44.5634 178.055 44.635 177.855 44.7747C177.643 44.9216 177.461 45.1508 177.303 45.4517V47.9877C177.303 48.0665 177.282 48.1273 177.239 48.1775C177.196 48.2133 177.149 48.2312 177.099 48.2384C177.038 48.2384 176.992 48.2133 176.949 48.1775C176.913 48.1309 176.888 48.0736 176.888 47.9984V44.4559C176.891 44.3843 176.916 44.327 176.952 44.284Z" fill="#231F20"/>
</svg>
