<svg width="180" height="58" viewBox="0 0 180 58" fill="none" xmlns="http://www.w3.org/2000/svg">
<g clip-path="url(#clip0_193_7211)">
<path d="M0 39.6404C0 39.6404 0.516778 39.1495 1.42631 38.2967C2.34101 37.444 3.64845 36.2347 5.23496 34.8032C6.02563 34.0849 6.88349 33.3097 7.80335 32.4931C8.71805 31.6766 9.67926 30.8135 10.687 29.935C11.6947 29.0564 12.7231 28.1365 13.7876 27.2218C14.847 26.3019 15.9271 25.3717 17.002 24.4414C18.0872 23.5164 19.1725 22.5913 20.237 21.6818C21.3016 20.767 22.3662 19.8885 23.3894 19.0306C24.4126 18.1675 25.41 17.351 26.3505 16.5706C27.2911 15.7903 28.1903 15.0564 29.0223 14.3846C30.6811 13.0358 32.0713 11.9246 33.0531 11.1494C34.035 10.3794 34.5983 9.94531 34.5983 9.94531C34.5983 9.94531 34.0815 10.4363 33.172 11.289C32.2573 12.1417 30.9499 13.351 29.3685 14.7825C28.5778 15.5009 27.72 16.2761 26.8001 17.0926C25.8854 17.9091 24.9242 18.767 23.9165 19.6456C22.9088 20.5241 21.8804 21.444 20.8158 22.3588C19.7564 23.2787 18.6764 24.2089 17.6015 25.1391C16.5162 26.0642 15.431 26.9892 14.3664 27.8988C13.3019 28.8084 12.2373 29.6921 11.2141 30.55C10.196 31.413 9.19349 32.2296 8.25295 33.0099C7.31241 33.7903 6.41322 34.5241 5.58121 35.196C3.92235 36.5448 2.53221 37.6559 1.55033 38.4311C0.563288 39.2011 0 39.6404 0 39.6404Z" fill="url(#paint0_linear_193_7211)"/>
<path d="M11.7401 16.3555H6.32422V22.2366H11.7401V16.3555Z" fill="url(#paint1_linear_193_7211)"/>
<path d="M6.25177 22.082H0.835938V27.9632H6.25177V27.8598V22.082Z" fill="url(#paint2_linear_193_7211)"/>
<path d="M9.05859 33.7733L11.6942 33.7061L11.6425 31.6699C11.503 31.7888 11.3583 31.9076 11.2187 32.0265C10.4849 32.6312 9.76658 33.21 9.05859 33.7733Z" fill="url(#paint3_linear_193_7211)"/>
<path d="M11.6304 27.8594H6.25586V27.9627V32.7896C7.25841 31.849 8.29713 30.862 9.39787 29.8697C10.1214 29.2082 10.8707 28.5364 11.6304 27.8594Z" fill="url(#paint4_linear_193_7211)"/>
<path d="M2.99607 35.8987C3.68855 35.2269 4.43271 34.5034 5.21305 33.7695H0.835938V38.0383C1.48708 37.3768 2.20023 36.6636 2.99607 35.8987Z" fill="url(#paint5_linear_193_7211)"/>
<path d="M0.835938 39.6311V39.6517H6.25177V35.8223C5.53862 36.3442 4.8358 36.8507 4.17949 37.321C2.93923 38.2047 1.81265 38.9747 0.835938 39.6311Z" fill="url(#paint6_linear_193_7211)"/>
<path d="M11.3592 39.9062H5.94336V45.7874H11.3592V39.9062Z" fill="url(#paint7_linear_193_7211)"/>
<path d="M32.0467 13.3555C31.3542 14.0945 30.6307 14.849 29.8452 15.6294C28.9098 16.5803 27.9124 17.5622 26.8685 18.5596C27.0443 19.3141 27.1373 20.1307 27.1373 21.0092C27.1373 26.1513 24.1089 29.1022 18.9618 29.1022H15.7578V35.0041H19.4011C28.331 35.0041 34.0776 29.3038 34.0776 21.0092C34.0776 18.0842 33.3541 15.495 32.0467 13.3555Z" fill="#073545"/>
<path d="M18.9641 12.8321C22.0286 12.8321 24.3386 13.9174 25.7081 15.876C26.5763 15.1784 27.429 14.4962 28.2351 13.8399C29.155 13.0853 30.0387 12.398 30.881 11.7313C28.323 8.75458 24.3593 7.00781 19.4034 7.00781H8.91797V12.8476H15.7343V12.8321H18.9641Z" fill="#073545"/>
<path d="M67.4929 36.6301C66.1803 34.1649 63.1468 32.5577 58.9919 32.5577H55.359C53.0438 32.5577 52.7234 31.829 52.7234 31.1055C52.7234 30.5629 52.9973 30.0151 53.4934 29.7412C54.3564 29.922 55.2659 30.0151 56.2633 30.0151C62.5318 30.0151 66.3922 26.6094 66.3922 21.9324C66.3922 18.8006 64.8935 17.028 61.8497 15.7101C64.8935 15.7101 67.1157 15.4362 68.8004 14.7541L67.1208 9.44141C64.2165 11.1675 61.1262 12.7127 55.7672 12.5732C49.4574 12.5732 45.1836 15.9324 45.1836 21.3846C45.1836 24.5164 46.4084 26.6507 49.4987 28.289C47.7727 29.3794 46.6357 31.152 46.6357 32.9195C46.6357 34.1908 47.1525 35.3639 48.3049 36.227C51.1214 35.3897 54.1342 34.9246 57.271 34.9246C60.8885 34.9298 64.3302 35.5396 67.4929 36.6301ZM55.9533 17.3019C58.3614 17.3019 59.5862 18.5267 59.5862 21.2089C59.5862 23.9789 58.3149 25.3897 55.9533 25.3897C53.7724 25.3897 52.3203 23.9375 52.3203 21.3019C52.3203 18.8006 53.7311 17.3019 55.9533 17.3019Z" fill="#073545"/>
<path d="M42.7792 14.043H35.9629V35.0042H42.7792V14.043Z" fill="#073545"/>
<path d="M74.5631 11.7314C76.9558 11.7314 78.5888 10.0983 78.5888 8.06216C78.5888 5.98981 76.9558 4.35156 74.5631 4.35156C72.1291 4.35156 70.4961 5.98464 70.4961 8.06216C70.4961 10.0932 72.1291 11.7314 74.5631 11.7314Z" fill="#073545"/>
<path d="M77.9472 14.043H71.1309V35.0042H77.9472V14.043Z" fill="#073545"/>
<path d="M87.7177 19.2159C87.7177 18.141 88.5962 17.5001 90.1879 17.5001C92.1 17.5001 93.2576 18.4976 93.4591 20.0118H99.7587C99.3194 15.6242 96.1309 12.4355 90.3895 12.4355C84.5654 12.4355 81.3355 15.5467 81.3355 19.3348C81.3355 27.5105 93.4591 24.9162 93.4591 28.5079C93.4591 29.5053 92.5444 30.3012 90.7874 30.3012C88.9115 30.3012 87.5162 29.2624 87.356 27.7069H80.6172C80.9376 32.0118 84.922 35.3245 90.8649 35.3245C96.4461 35.3245 99.8775 32.4149 99.8775 28.5441C99.7587 20.2547 87.7177 22.7663 87.7177 19.2159Z" fill="#073545"/>
<path d="M124.523 12.7532H116.11L109.371 21.8023V5.49219H102.555V35.0012H109.371V25.6731L116.151 35.0012H124.606L115.273 23.916L124.523 12.7532Z" fill="#073545"/>
<path d="M130.626 4.35156C128.192 4.35156 126.559 5.98464 126.559 8.06216C126.559 10.0932 128.192 11.7314 130.626 11.7314C133.018 11.7314 134.651 10.0983 134.651 8.06216C134.657 5.98981 133.018 4.35156 130.626 4.35156Z" fill="#073545"/>
<path d="M134.017 14.043H127.201V35.0042H134.017V14.043Z" fill="#073545"/>
<path d="M145.133 5.49219H138.316V35.0012H145.133V5.49219Z" fill="#073545"/>
<path d="M155.605 5.49219H148.789V35.0012H155.605V5.49219Z" fill="#073545"/>
<path d="M166.028 19.2159C166.028 18.141 166.907 17.5001 168.498 17.5001C170.411 17.5001 171.568 18.4976 171.77 20.0118H178.069C177.63 15.6242 174.441 12.4355 168.7 12.4355C162.876 12.4355 159.646 15.5467 159.646 19.3348C159.646 27.5105 171.77 24.9162 171.77 28.5079C171.77 29.5053 170.855 30.3012 169.098 30.3012C167.222 30.3012 165.827 29.2624 165.667 27.7069H158.928C159.248 32.0118 163.232 35.3245 169.175 35.3245C174.757 35.3245 178.188 32.4149 178.188 28.5441C178.069 20.2547 166.028 22.7663 166.028 19.2159Z" fill="#073545"/>
<path d="M33.6211 6.1142L36.0034 8.43461L36.8768 9.28733L39.6984 12.0418L41.7965 3.81445L33.6211 6.1142Z" fill="url(#paint8_linear_193_7211)"/>
<path d="M22.9024 46.3185C22.9024 50.3599 20.4064 51.2539 18.2721 51.2539H16.2773V41.5898H18.2049C20.4994 41.595 22.9024 42.3599 22.9024 46.3185ZM16.6443 41.8896V50.9542H18.2876C20.3444 50.9542 22.5252 50.0911 22.5252 46.3134C22.5252 42.4994 20.2824 41.8896 18.1791 41.8896H16.6443Z" fill="#073545"/>
<path d="M26.4897 41.2686C26.4897 41.4081 26.3812 41.5373 26.159 41.5373C25.9678 41.5373 25.8438 41.4081 25.8438 41.2686C25.8438 41.1291 25.9729 40.9844 26.159 40.9844C26.3812 40.9844 26.4897 41.1239 26.4897 41.2686ZM26.3347 51.2531H25.9884V43.8888H26.3347V51.2531Z" fill="#073545"/>
<path d="M35.6443 43.7916C35.1534 43.9053 34.4609 43.9879 33.2258 43.9879C34.2387 44.298 34.8692 45.0112 34.8692 46.1998C34.8692 47.6469 33.7943 48.5564 32.0734 48.5564C31.629 48.5564 31.2362 48.4737 30.9055 48.36C30.399 48.6133 30.0838 48.9699 30.0838 49.4246C30.0838 49.9621 30.5282 50.3445 31.6497 50.3445H33.0243C34.5746 50.3445 35.4428 51.0422 35.4428 52.0603C35.4428 53.311 34.4144 54.0448 32.1716 54.0448C29.8926 54.0448 28.9004 53.5073 28.9004 52.0706H29.2466C29.2776 53.3213 30.0528 53.7451 32.1716 53.7451C34.2284 53.7451 35.0966 53.1197 35.0966 52.0706C35.0966 51.1766 34.3214 50.6391 33.0088 50.6391H31.6186C30.368 50.6391 29.7221 50.143 29.7221 49.4608C29.7221 48.9337 30.0993 48.5409 30.6213 48.2412C29.7376 47.8277 29.2466 47.1766 29.2466 46.1688C29.2466 44.7063 30.337 43.7451 32.0476 43.7451C34.4196 43.7606 34.8795 43.6314 35.5255 43.4453L35.6443 43.7916ZM29.5877 46.174C29.5877 47.5642 30.7246 48.2722 32.0682 48.2722C33.5876 48.2722 34.5023 47.5228 34.5023 46.1998C34.5023 44.8252 33.5721 44.0293 32.0527 44.0293C30.4404 44.0345 29.5877 44.9285 29.5877 46.174Z" fill="#073545"/>
<path d="M38.2827 41.2686C38.2827 41.4081 38.1742 41.5373 37.952 41.5373C37.7607 41.5373 37.6367 41.4081 37.6367 41.2686C37.6367 41.1291 37.7659 40.9844 37.952 40.9844C38.1742 40.9844 38.2827 41.1239 38.2827 41.2686ZM38.1277 51.2531H37.7762V43.8888H38.1225V51.2531H38.1277Z" fill="#073545"/>
<path d="M45.127 50.9703C44.698 51.2132 44.1968 51.3941 43.5301 51.3941C42.4397 51.3941 41.7576 50.7843 41.7576 49.5905V44.1744H40.3984V43.8902H41.7576V42.0297L42.1038 42.0039V43.8902H44.3828L44.3208 44.1744H42.109V49.5801C42.109 50.5724 42.5999 51.0995 43.5611 51.0995C44.1296 51.0995 44.574 50.9445 44.9668 50.7326L45.127 50.9703Z" fill="#073545"/>
<path d="M52.2568 51.1738L52.1638 51.4012C51.5178 51.2152 51.2284 50.8483 51.2129 49.9697C50.629 50.9051 49.7608 51.4012 48.5412 51.4012C46.9909 51.4012 46.0762 50.5227 46.0762 49.2152C46.0762 47.7113 47.3578 46.8896 49.3009 46.8896H51.1664V46.011C51.1664 44.7346 50.6445 44.0369 49.0632 44.0369C48.3345 44.0369 47.611 44.2074 46.8048 44.5072L46.6963 44.2384C47.5335 43.9284 48.2776 43.7578 49.0683 43.7578C50.8047 43.7578 51.5178 44.5382 51.5178 45.9852V49.701C51.5178 50.6777 51.7194 51.0033 52.2568 51.1738ZM51.1664 49.5718V47.1738H49.3629C47.5593 47.1738 46.4534 47.8715 46.4534 49.2152C46.4534 50.378 47.2441 51.1015 48.5412 51.1015C49.8228 51.1015 50.629 50.5175 51.1664 49.5718Z" fill="#073545"/>
<path d="M55.0117 50.2376V40.8578L55.358 40.8164V50.2221C55.358 50.8061 55.6267 51.1007 56.1641 51.1007C56.3864 51.1007 56.6086 51.0593 56.7946 50.987L56.8876 51.2557C56.6809 51.328 56.4277 51.3952 56.1435 51.3952C55.4665 51.4004 55.0117 51.0283 55.0117 50.2376Z" fill="#073545"/>
<path d="M69.3011 42.4319L69.0634 42.6748C68.3192 42.0494 67.575 41.7549 66.4536 41.7549C64.8878 41.7549 63.8904 42.5662 63.8904 43.6825C63.8904 44.8608 64.6036 45.3414 66.5932 45.8944C68.6964 46.4784 69.6266 47.0985 69.6266 48.6748C69.6266 50.2923 68.283 51.3983 66.3399 51.3983C64.9188 51.3983 63.9679 50.928 63.1152 50.2355L63.353 50.0236C64.1281 50.6593 64.9653 51.0882 66.3244 51.0882C68.097 51.0882 69.2804 50.1528 69.2804 48.6903C69.2804 47.2691 68.4742 46.7471 66.464 46.1787C64.2832 45.5688 63.5235 44.9745 63.5235 43.6825C63.5235 42.4215 64.6759 41.4551 66.4485 41.4551C67.7662 41.45 68.5414 41.8324 69.3011 42.4319Z" fill="#073545"/>
<path d="M72.9458 51.2557H72.5996V40.8578L72.9458 40.8164V51.2557ZM73.4833 47.2298L77.7674 51.2609H77.3385L73.0389 47.2298L76.9302 43.8965H77.3746L73.4833 47.2298Z" fill="#073545"/>
<path d="M80.4272 41.2686C80.4272 41.4081 80.3187 41.5373 80.0965 41.5373C79.9053 41.5373 79.7812 41.4081 79.7812 41.2686C79.7812 41.1291 79.9104 40.9844 80.0965 40.9844C80.3187 40.9844 80.4272 41.1239 80.4272 41.2686ZM80.2722 51.2531H79.9259V43.8888H80.2722V51.2531Z" fill="#073545"/>
<path d="M83.9199 50.2376V40.8578L84.2662 40.8164V50.2221C84.2662 50.8061 84.5349 51.1007 85.0723 51.1007C85.2945 51.1007 85.5168 51.0593 85.7028 50.987L85.7958 51.2557C85.5891 51.328 85.3359 51.3952 85.0517 51.3952C84.3799 51.4004 83.9199 51.0283 83.9199 50.2376Z" fill="#073545"/>
<path d="M88.2793 50.2376V40.8578L88.6255 40.8164V50.2221C88.6255 50.8061 88.8943 51.1007 89.4317 51.1007C89.6539 51.1007 89.8761 51.0593 90.0622 50.987L90.1552 51.2557C89.9485 51.328 89.6953 51.3952 89.411 51.3952C88.7392 51.4004 88.2793 51.0283 88.2793 50.2376Z" fill="#073545"/>
<path d="M96.9155 44.5331L96.7088 44.7605C96.0111 44.2799 95.4116 44.037 94.4969 44.037C93.2618 44.037 92.3471 44.6313 92.3471 45.5718C92.3471 46.4349 92.9621 46.8225 94.59 47.2153C96.44 47.67 97.1377 48.1352 97.1377 49.36C97.1377 50.5796 96.0318 51.4013 94.4659 51.4013C93.1843 51.4013 92.3937 50.9879 91.7012 50.4659L91.9079 50.254C92.621 50.7812 93.298 51.1067 94.4711 51.1067C95.7837 51.1067 96.7811 50.4814 96.7811 49.36C96.7811 48.2954 96.2282 47.9129 94.4401 47.4737C92.7037 47.0602 91.9906 46.5641 91.9906 45.5718C91.9906 44.4917 93.0965 43.7579 94.4866 43.7579C95.4581 43.7527 96.1868 44.006 96.9155 44.5331Z" fill="#073545"/>
<path d="M109.686 48.3754H104.72L103.614 51.2539H103.252L106.999 41.5898H107.428L111.19 51.2539H110.792L109.686 48.3754ZM109.577 48.0756L107.205 41.8482L104.833 48.0756H109.577Z" fill="#073545"/>
<path d="M117.671 44.5331L117.465 44.7605C116.767 44.2799 116.168 44.037 115.253 44.037C114.018 44.037 113.103 44.6313 113.103 45.5718C113.103 46.4349 113.718 46.8225 115.346 47.2153C117.196 47.67 117.894 48.1352 117.894 49.36C117.894 50.5796 116.788 51.4013 115.222 51.4013C113.94 51.4013 113.15 50.9879 112.457 50.4659L112.664 50.254C113.377 50.7812 114.054 51.1067 115.227 51.1067C116.54 51.1067 117.537 50.4814 117.537 49.36C117.537 48.2954 116.984 47.9129 115.196 47.4737C113.46 47.0602 112.746 46.5641 112.746 45.5718C112.746 44.4917 113.852 43.7579 115.242 43.7579C116.214 43.7527 116.943 44.006 117.671 44.5331Z" fill="#073545"/>
<path d="M124.703 44.5331L124.496 44.7605C123.798 44.2799 123.199 44.037 122.284 44.037C121.049 44.037 120.134 44.6313 120.134 45.5718C120.134 46.4349 120.749 46.8225 122.377 47.2153C124.227 47.67 124.925 48.1352 124.925 49.36C124.925 50.5796 123.819 51.4013 122.253 51.4013C120.971 51.4013 120.181 50.9879 119.488 50.4659L119.695 50.254C120.408 50.7812 121.085 51.1067 122.258 51.1067C123.571 51.1067 124.568 50.4814 124.568 49.36C124.568 48.2954 124.015 47.9129 122.227 47.4737C120.491 47.0602 119.778 46.5641 119.778 45.5718C119.778 44.4917 120.884 43.7579 122.274 43.7579C123.245 43.7527 123.974 44.006 124.703 44.5331Z" fill="#073545"/>
<path d="M133.634 47.5408C133.634 49.9956 132.337 51.4012 130.347 51.4012C128.306 51.4012 127.076 49.9697 127.076 47.5873C127.076 45.148 128.389 43.7578 130.363 43.7578C132.368 43.7527 133.634 45.1015 133.634 47.5408ZM127.438 47.5821C127.438 49.825 128.528 51.1015 130.347 51.1015C132.135 51.1015 133.272 49.8509 133.272 47.5408C133.272 45.2875 132.182 44.0369 130.363 44.0369C128.59 44.0369 127.438 45.272 127.438 47.5821Z" fill="#073545"/>
<path d="M141.381 44.4625L141.174 44.6744C140.652 44.2609 140.068 44.0335 139.262 44.0335C137.521 44.0335 136.291 45.2842 136.291 47.6098C136.291 49.9095 137.541 51.0981 139.247 51.0981C140.099 51.0981 140.73 50.8294 141.252 50.416L141.459 50.6279C140.89 51.0826 140.177 51.3927 139.262 51.3927C137.288 51.3927 135.924 50.018 135.924 47.6046C135.924 45.2067 137.236 43.7441 139.242 43.7441C140.13 43.7545 140.766 43.9664 141.381 44.4625Z" fill="#073545"/>
<path d="M144.476 41.2686C144.476 41.4081 144.368 41.5373 144.145 41.5373C143.954 41.5373 143.83 41.4081 143.83 41.2686C143.83 41.1291 143.959 40.9844 144.145 40.9844C144.368 40.9844 144.476 41.1239 144.476 41.2686ZM144.321 51.2531H143.975V43.8888H144.321V51.2531Z" fill="#073545"/>
<path d="M153.41 51.1738L153.317 51.4012C152.671 51.2152 152.387 50.8483 152.371 49.9697C151.787 50.9051 150.914 51.4012 149.699 51.4012C148.149 51.4012 147.234 50.5227 147.234 49.2152C147.234 47.7113 148.516 46.8896 150.459 46.8896H152.325V46.011C152.325 44.7346 151.803 44.0369 150.221 44.0369C149.493 44.0369 148.764 44.2074 147.958 44.5072L147.849 44.2384C148.687 43.9284 149.431 43.7578 150.221 43.7578C151.958 43.7578 152.671 44.5382 152.671 45.9852V49.701C152.666 50.6777 152.872 51.0033 153.41 51.1738ZM152.319 49.5718V47.1738H150.516C148.712 47.1738 147.606 47.8715 147.606 49.2152C147.606 50.378 148.397 51.1015 149.694 51.1015C150.976 51.1015 151.782 50.5175 152.319 49.5718Z" fill="#073545"/>
<path d="M159.67 50.9703C159.241 51.2132 158.74 51.3941 158.073 51.3941C156.983 51.3941 156.301 50.7843 156.301 49.5905V44.1744H154.941V43.8902H156.301V42.0297L156.647 42.0039V43.8902H158.921L158.859 44.1744H156.647V49.5801C156.647 50.5724 157.138 51.0995 158.099 51.0995C158.667 51.0995 159.112 50.9445 159.505 50.7326L159.67 50.9703Z" fill="#073545"/>
<path d="M162.025 41.2686C162.025 41.4081 161.916 41.5373 161.694 41.5373C161.503 41.5373 161.379 41.4081 161.379 41.2686C161.379 41.1291 161.508 40.9844 161.694 40.9844C161.911 40.9844 162.025 41.1239 162.025 41.2686ZM161.865 51.2531H161.518V43.8888H161.865V51.2531Z" fill="#073545"/>
<path d="M171.449 47.5408C171.449 49.9956 170.151 51.4012 168.162 51.4012C166.121 51.4012 164.891 49.9697 164.891 47.5873C164.891 45.148 166.203 43.7578 168.177 43.7578C170.182 43.7527 171.449 45.1015 171.449 47.5408ZM165.252 47.5821C165.252 49.825 166.343 51.1015 168.162 51.1015C169.95 51.1015 171.087 49.8509 171.087 47.5408C171.087 45.2875 169.996 44.0369 168.177 44.0369C166.405 44.0369 165.252 45.272 165.252 47.5821Z" fill="#073545"/>
<path d="M180 46.0187V51.2539H179.654V46.0497C179.654 44.7164 179.054 44.0342 177.804 44.0342C176.476 44.0342 175.576 44.7423 174.801 45.8069V51.2539H174.455V43.8895H174.755L174.786 45.3934C175.53 44.4012 176.507 43.75 177.804 43.75C179.302 43.75 180 44.5717 180 46.0187Z" fill="#073545"/>
</g>
<defs>
<linearGradient id="paint0_linear_193_7211" x1="-0.300041" y1="24.7897" x2="34.8898" y2="24.7897" gradientUnits="userSpaceOnUse">
<stop stop-color="#00ABD6"/>
<stop offset="0.1675" stop-color="#009BD7"/>
<stop offset="0.4337" stop-color="#0188D9"/>
<stop offset="0.7079" stop-color="#017DDA"/>
<stop offset="1" stop-color="#0179DA"/>
</linearGradient>
<linearGradient id="paint1_linear_193_7211" x1="6.32288" y1="19.2962" x2="11.7387" y2="19.2962" gradientUnits="userSpaceOnUse">
<stop stop-color="#00ABD6"/>
<stop offset="0.1675" stop-color="#009BD7"/>
<stop offset="0.4337" stop-color="#0188D9"/>
<stop offset="0.7079" stop-color="#017DDA"/>
<stop offset="1" stop-color="#0179DA"/>
</linearGradient>
<linearGradient id="paint2_linear_193_7211" x1="0.83356" y1="25.0221" x2="6.24935" y2="25.0221" gradientUnits="userSpaceOnUse">
<stop stop-color="#00ABD6"/>
<stop offset="0.1675" stop-color="#009BD7"/>
<stop offset="0.4337" stop-color="#0188D9"/>
<stop offset="0.7079" stop-color="#017DDA"/>
<stop offset="1" stop-color="#0179DA"/>
</linearGradient>
<linearGradient id="paint3_linear_193_7211" x1="9.02997" y1="32.7579" x2="11.666" y2="32.6885" gradientUnits="userSpaceOnUse">
<stop stop-color="#00ABD6"/>
<stop offset="0.1675" stop-color="#009BD7"/>
<stop offset="0.4337" stop-color="#0188D9"/>
<stop offset="0.7079" stop-color="#017DDA"/>
<stop offset="1" stop-color="#0179DA"/>
</linearGradient>
<linearGradient id="paint4_linear_193_7211" x1="6.25343" y1="30.3227" x2="11.6281" y2="30.3227" gradientUnits="userSpaceOnUse">
<stop stop-color="#00ABD6"/>
<stop offset="0.1675" stop-color="#009BD7"/>
<stop offset="0.4337" stop-color="#0188D9"/>
<stop offset="0.7079" stop-color="#017DDA"/>
<stop offset="1" stop-color="#0179DA"/>
</linearGradient>
<linearGradient id="paint5_linear_193_7211" x1="0.83356" y1="35.9007" x2="5.20974" y2="35.9007" gradientUnits="userSpaceOnUse">
<stop stop-color="#00ABD6"/>
<stop offset="0.1675" stop-color="#009BD7"/>
<stop offset="0.4337" stop-color="#0188D9"/>
<stop offset="0.7079" stop-color="#017DDA"/>
<stop offset="1" stop-color="#0179DA"/>
</linearGradient>
<linearGradient id="paint6_linear_193_7211" x1="0.83356" y1="37.736" x2="6.24935" y2="37.736" gradientUnits="userSpaceOnUse">
<stop stop-color="#00ABD6"/>
<stop offset="0.1675" stop-color="#009BD7"/>
<stop offset="0.4337" stop-color="#0188D9"/>
<stop offset="0.7079" stop-color="#017DDA"/>
<stop offset="1" stop-color="#0179DA"/>
</linearGradient>
<linearGradient id="paint7_linear_193_7211" x1="5.9415" y1="42.8458" x2="11.3573" y2="42.8458" gradientUnits="userSpaceOnUse">
<stop stop-color="#00ABD6"/>
<stop offset="0.1675" stop-color="#009BD7"/>
<stop offset="0.4337" stop-color="#0188D9"/>
<stop offset="0.7079" stop-color="#017DDA"/>
<stop offset="1" stop-color="#0179DA"/>
</linearGradient>
<linearGradient id="paint8_linear_193_7211" x1="33.6227" y1="7.92887" x2="41.7978" y2="7.92887" gradientUnits="userSpaceOnUse">
<stop stop-color="#00ABD6"/>
<stop offset="0.1675" stop-color="#009BD7"/>
<stop offset="0.4337" stop-color="#0188D9"/>
<stop offset="0.7079" stop-color="#017DDA"/>
<stop offset="1" stop-color="#0179DA"/>
</linearGradient>
<clipPath id="clip0_193_7211">
<rect width="180" height="58" fill="white"/>
</clipPath>
</defs>
</svg>
