<svg width="150" height="135" viewBox="0 0 150 135" fill="none" xmlns="http://www.w3.org/2000/svg">
<g clip-path="url(#clip0_192_5792)">
<path d="M27.0918 118.646C27.2072 117.992 27.3514 117.146 27.4956 116.127L27.0918 118.646Z" fill="#16B9EC"/>
<path d="M26.7697 120.239H26.8274H41.1734V105.691H23.5293C25.3851 109.509 26.6062 114.018 26.7697 120.239ZM27.4908 116.114C27.337 117.134 27.2023 117.989 27.087 118.634L27.4908 116.114Z" fill="#16B9EC"/>
<path d="M50.9974 43.5957C51.5647 44.4418 52.0743 45.2687 52.5551 46.086H54.8243V37.3457H46.084V37.7976C47.8147 39.413 49.4686 41.3168 50.9974 43.5957Z" fill="#7F5DA1"/>
<path d="M82.8183 28.3108L76.7402 30.3867L78.8162 36.4648L84.8943 34.3889L82.8183 28.3108Z" fill="#ACC837"/>
<path d="M95.1678 44.4833L96.6005 44.0794L95.1966 39.041L90.1582 40.4449L90.5332 41.791L94.1582 40.7622L95.1678 44.4833Z" fill="#16B9EC"/>
<path d="M88.6414 41.087L83.6016 42.4883L85.0029 47.5281L90.0427 46.1268L88.6414 41.087Z" fill="#7F5DA1"/>
<path d="M90.0354 37.5443L91.4008 37.0347L89.5835 32.1309L84.6797 33.9578L85.1893 35.3135L88.7277 34.0058L90.0354 37.5443Z" fill="#16B9EC"/>
<path d="M52.5551 46.0851C52.0839 45.2678 51.5647 44.4409 50.9974 43.5948C49.4686 41.3159 47.8147 39.4121 46.084 37.7871V46.0851H52.5551Z" fill="#7F5DA1"/>
<path d="M102.718 37.8064L98.7324 38.9766L99.9026 42.9621L103.888 41.792L102.718 37.8064Z" fill="#ACC837"/>
<path d="M76.6493 25.6865L72.9316 27.5391L74.7842 31.2567L78.5019 29.4041L76.6493 25.6865Z" fill="#7F5DA1"/>
<path d="M79.9869 76.9727L75.1973 79.7344L77.9589 84.524L82.7485 81.7623L79.9869 76.9727Z" fill="#7F5DA1"/>
<path d="M69.8093 69.8945H64.4824V75.2214H69.8093V69.8945Z" fill="#16B9EC"/>
<path d="M55.4656 84.2402H50.1387V89.5671H55.4656V84.2402Z" fill="#ACC837"/>
<path d="M59.1323 102.289H55.7285V105.693H59.1323V102.289Z" fill="#ACC837"/>
<path d="M64.481 64.1836H58.7695V69.8951H64.481V64.1836Z" fill="#7F5DA1"/>
<path d="M75.2005 76.0723H71.5371V79.7357H75.2005V76.0723Z" fill="#16B9EC"/>
<path d="M62.8441 58.8703L65.8633 57.976L62.7768 47.5723L52.373 50.6588L53.3538 53.9568L60.6711 51.8895L62.8441 58.8703Z" fill="#ACC837"/>
<path d="M73.7983 52.4747L75.9522 51.8305L73.9906 45.2344L67.3945 47.1959L68.058 49.4267L72.481 48.1478L73.7983 52.4747Z" fill="#7F5DA1"/>
<path d="M78.7034 43.6744L80.7803 43.0686L78.8188 36.4629L72.2227 38.4244L72.9246 40.7898L77.3957 39.559L78.7034 43.6744Z" fill="#16B9EC"/>
<path d="M65.8127 41.9842L61.5078 43.2617L62.7853 47.5666L67.0902 46.2891L65.8127 41.9842Z" fill="#ACC837"/>
<path d="M87.0279 22.845L89.0086 21.6143L84.9991 15.1816L78.5664 19.1912L79.6049 20.8451L84.2875 17.9605L87.0279 22.845Z" fill="#7F5DA1"/>
<path d="M70.6287 24.1742L67.0703 26.3906L69.2868 29.949L72.8452 27.7326L70.6287 24.1742Z" fill="#16B9EC"/>
<path d="M92.5565 19.2562L88.998 21.4727L91.2145 25.0311L94.7729 22.8146L92.5565 19.2562Z" fill="#16B9EC"/>
<path d="M95.2049 8.74643L91.6465 10.9629L93.8629 14.5213L97.4213 12.3048L95.2049 8.74643Z" fill="#ACC837"/>
<path d="M91.1209 24.7874L87.5625 27.0039L89.779 30.5623L93.3374 28.3459L91.1209 24.7874Z" fill="#ACC837"/>
<path d="M104.78 36.9979L106.001 36.6036L104.703 32.6133L100.723 33.9114L101.155 35.2479L103.886 34.4113L104.78 36.9979Z" fill="#7F5DA1"/>
<path d="M113.884 31.2554L110.766 32.2676L111.778 35.3864L114.897 34.3742L113.884 31.2554Z" fill="#7F5DA1"/>
<path d="M119.764 19.5243L117.889 20.1328L118.497 22.0078L120.372 21.3993L119.764 19.5243Z" fill="#7F5DA1"/>
<path d="M115.376 10.9443L114.434 11.25L114.739 12.192L115.681 11.8863L115.376 10.9443Z" fill="#16B9EC"/>
<path d="M114.964 25.3779L114.021 25.6836L114.327 26.6256L115.269 26.3199L114.964 25.3779Z" fill="#16B9EC"/>
<path d="M123.708 30.8603L122.766 31.166L123.071 32.1081L124.013 31.8023L123.708 30.8603Z" fill="#16B9EC"/>
<path d="M100.744 5.14603L97.625 6.1582L98.6372 9.27702L101.756 8.26485L100.744 5.14603Z" fill="#7F5DA1"/>
<path d="M106.668 24.5796L103.549 25.5918L104.561 28.7106L107.68 27.6984L106.668 24.5796Z" fill="#ACC837"/>
<path d="M104.006 17.8199L100.887 18.832L101.899 21.9508L105.018 20.9387L104.006 17.8199Z" fill="#16B9EC"/>
<path d="M98.0641 14.5503L94.9453 15.5625L95.9575 18.6813L99.0763 17.6691L98.0641 14.5503Z" fill="#16B9EC"/>
<path d="M19.2676 83.7773H0.0850397C-0.280342 86.585 0.286961 90.1811 4.95039 91.5369C10.7003 93.2196 18.9984 96.335 23.5272 105.681H26.6329V91.1427H19.2772V83.7773H19.2676Z" fill="#7F5DA1"/>
<path d="M49.3933 91.2129H41.0664V99.5398H49.3933V91.2129Z" fill="#7F5DA1"/>
<path d="M41.0814 99.5391H34.543V105.876H41.0814V99.5391Z" fill="#ACC837"/>
<path d="M58.7647 33.416H54.832V37.3487H58.7647V33.416Z" fill="#F7B242"/>
<path d="M65.7154 27.7773L59.0039 31.3062L60.0904 33.3735L64.7443 30.9504L67.1962 35.5658L69.2442 34.4888L65.7154 27.7773Z" fill="#F7B242"/>
<path d="M108.299 0L106.424 0.605765L107.03 2.48075L108.905 1.87499L108.299 0Z" fill="#F7B242"/>
<path d="M110.344 37.916L108.469 38.5218L109.075 40.3968L110.949 39.791L110.344 37.916Z" fill="#F7B242"/>
<path d="M99.5058 25.4062L96.3809 26.4159L97.3905 29.5408L100.515 28.5312L99.5058 25.4062Z" fill="#F7B242"/>
<path d="M106.268 13.5176L103.143 14.5272L103.46 15.5079L105.614 14.8156L106.316 16.9502L107.277 16.6426L106.268 13.5176Z" fill="#F7B242"/>
<path d="M55.7335 105.691H41.1855V120.239H48.5028V112.134H55.7335V105.691Z" fill="#F7B242"/>
<path d="M68.918 84.2852V86.5255H75.0429V92.612H77.2448V84.2852H68.918Z" fill="#ACC837"/>
<path d="M31.3184 75.5472H27.3473V61.5954H31.3184V61.5762H3.59748C2.59749 62.4704 1.9148 63.0762 1.9148 63.0762C1.9148 63.0762 0.453273 65.4415 2.70326 66.7877L4.95324 68.2492C4.95324 68.2492 5.85708 68.9223 5.17439 70.3838L1.12634 80.0664C1.12634 80.0664 0.357119 81.7106 0.0878906 83.7779H26.6358H31.3184V75.5472Z" fill="#E53388"/>
<path d="M31.3213 83.7834H26.6387V91.1488H41.1866V75.5527H31.3213V83.7834Z" fill="#7F5DA1"/>
<path d="M41.1211 45.8789V47.8404H45.0153V51.2058H46.448V45.8789H41.1211Z" fill="#ACC837"/>
<path d="M35.8215 42.3574H32.2734V45.9055H35.8215V42.3574Z" fill="#16B9EC"/>
<path d="M13.1649 51.1992C13.1649 51.2184 13.1649 51.2377 13.1649 51.2569C13.386 52.9492 12.0207 53.9877 11.4726 54.5165C11.0784 54.9011 6.23225 59.2184 3.59766 61.5645H23.1841V57.4299H27.3379V61.5645H31.309V61.5838H41.1743V51.1992H13.1649Z" fill="#7F5DA1"/>
<path d="M27.3394 61.5762H23.1855V61.5954H27.3394V61.5762Z" fill="white"/>
<path d="M41.1871 30.7905C41.1871 30.7905 40.341 30.7232 38.9179 30.8193V33.5693H35.1391V31.3097C29.0718 32.5116 19.7834 36.2808 13.8412 47.8865C13.8412 47.8865 12.9662 49.5307 13.1585 51.2038H27.0911H32.418H41.1775V51.1846H32.418V45.8769H27.3411V37.3385H41.1775H47.7352V30.7809H41.1871V30.7905Z" fill="#ACC837"/>
<path d="M54.6321 61.5996H41.2188V65.4361H50.4879V75.0226H54.6321V61.5996Z" fill="#F7B242"/>
<path d="M36.9078 79.3945H26.6387V91.1444H36.9078V79.3945Z" fill="#F7B242"/>
<path d="M69.9362 92.0215H56.4844V96.0118H66.167V105.464H69.9362V92.0215Z" fill="#7F5DA1"/>
<path d="M55.459 75.2207V78.3841H61.7666V84.2399H64.4781V75.2207H55.459Z" fill="#16B9EC"/>
<path d="M41.1821 51.2051H27.3457V61.6088H41.1821V51.2051Z" fill="#E53388"/>
<path d="M19.2788 75.0117H10.5V83.7905H19.2788V75.0117Z" fill="#16B9EC"/>
<path d="M91.1802 105.332H94.2571L89.8341 113.717V118.726H87.0168V113.717L82.5938 105.332H85.6706L88.4302 111.226L91.1802 105.332Z" fill="#312D78"/>
<path d="M108.133 112.018C108.133 112.97 107.979 113.865 107.681 114.701C107.383 115.538 106.941 116.278 106.373 116.903C105.806 117.538 105.095 118.038 104.258 118.403C103.422 118.768 102.46 118.961 101.393 118.961C100.316 118.961 99.3638 118.778 98.5273 118.403C97.6908 118.038 96.9792 117.538 96.4023 116.903C95.8254 116.278 95.3927 115.538 95.0946 114.701C94.7966 113.865 94.6523 112.97 94.6523 112.018C94.6523 111.076 94.7966 110.192 95.0946 109.345C95.3927 108.499 95.8254 107.759 96.4023 107.134C96.9792 106.499 97.6908 106.009 98.5273 105.634C99.3638 105.268 100.325 105.076 101.393 105.076C102.47 105.076 103.422 105.259 104.258 105.634C105.095 105.999 105.796 106.499 106.373 107.134C106.941 107.768 107.383 108.499 107.681 109.345C107.989 110.192 108.133 111.086 108.133 112.018ZM101.402 116.749C102.056 116.749 102.633 116.624 103.123 116.384C103.614 116.143 104.018 115.807 104.354 115.384C104.681 114.961 104.931 114.461 105.085 113.884C105.248 113.307 105.325 112.682 105.325 112.009C105.325 111.336 105.248 110.711 105.085 110.134C104.921 109.557 104.681 109.057 104.354 108.634C104.027 108.211 103.614 107.884 103.123 107.634C102.633 107.393 102.056 107.268 101.402 107.268C100.748 107.268 100.172 107.393 99.6811 107.634C99.1908 107.874 98.7869 108.211 98.4504 108.634C98.1235 109.057 97.8735 109.557 97.7196 110.134C97.5562 110.711 97.4792 111.336 97.4792 112.009C97.4792 112.682 97.5562 113.307 97.7196 113.884C97.8831 114.461 98.1235 114.961 98.4504 115.384C98.7773 115.807 99.1908 116.134 99.6811 116.384C100.172 116.624 100.739 116.749 101.402 116.749Z" fill="#312D78"/>
<path d="M118.523 105.332H121.341V113.899C121.341 114.659 121.216 115.361 120.956 115.986C120.696 116.611 120.341 117.14 119.869 117.582C119.398 118.024 118.821 118.37 118.129 118.611C117.437 118.851 116.667 118.976 115.802 118.976C114.927 118.976 114.158 118.851 113.466 118.611C112.783 118.37 112.206 118.024 111.735 117.582C111.264 117.14 110.908 116.611 110.648 115.986C110.398 115.361 110.264 114.668 110.264 113.899V105.332H113.081V114.034C113.081 114.88 113.312 115.543 113.764 116.015C114.216 116.495 114.898 116.726 115.792 116.726C116.687 116.726 117.369 116.486 117.821 116.015C118.273 115.534 118.504 114.88 118.504 114.034V105.332H118.523Z" fill="#312D78"/>
<path d="M133.301 105.332V107.563H129.599V118.726H126.782V107.563H123.08V105.332H133.301Z" fill="#312D78"/>
<path d="M143.459 118.726V113.092H137.911V118.726H135.094V105.332H137.911V110.765H143.459V105.332H146.276V118.726H143.459Z" fill="#312D78"/>
</g>
<path d="M27.1181 121.898H33.7865V122.852H30.9967V130.191H29.902V122.852H27.1181V121.898ZM34.9401 121.898H40.6846V122.852H36.0349V125.483H40.3785V126.372H36.0349V129.238H40.7434V130.191H34.9401V121.898ZM48.1594 127.066H49.2482C49.1717 127.908 48.9069 128.614 48.4478 129.179C47.7945 129.98 46.8645 130.38 45.658 130.38C44.3808 130.38 43.392 129.927 42.6975 129.02C42.1089 128.255 41.8146 127.266 41.8146 126.054C41.8146 124.759 42.1913 123.694 42.9447 122.864C43.6451 122.093 44.575 121.71 45.7462 121.71C46.8822 121.71 47.7768 122.063 48.4301 122.77C48.8774 123.252 49.1305 123.794 49.1835 124.388H48.077C47.9828 123.958 47.7945 123.605 47.5119 123.323C47.0587 122.87 46.4643 122.64 45.7227 122.64C44.728 122.64 43.9864 123.046 43.4861 123.853C43.1036 124.465 42.9152 125.194 42.9152 126.048C42.9152 126.954 43.1153 127.708 43.5097 128.314C44.0041 129.073 44.7398 129.45 45.7109 129.45C46.5408 129.45 47.1765 129.161 47.6179 128.585C47.9063 128.214 48.0829 127.708 48.1594 127.066ZM56.1286 121.898H57.2233V130.191H56.1286V126.307H51.7496V130.191H50.6549V121.898H51.7496V125.353H56.1286V121.898ZM64.7452 121.898H65.787V130.191H64.5804L61.6258 125.724C60.8783 124.588 60.378 123.764 60.125 123.246C60.1603 123.658 60.1838 124.317 60.1956 125.23L60.2015 126.001V130.191H59.1538V121.898H60.3427L63.4386 126.619C64.0684 127.572 64.5275 128.326 64.8217 128.885C64.7688 127.784 64.7452 126.842 64.7452 126.048V121.898ZM71.3548 121.71C72.4908 121.71 73.4207 122.11 74.1564 122.905C74.8863 123.699 75.2512 124.741 75.2512 126.03C75.2512 127.178 74.9687 128.137 74.3977 128.897C73.662 129.885 72.6203 130.38 71.2783 130.38C69.9423 130.38 68.9005 129.879 68.1589 128.885C67.5998 128.131 67.3173 127.19 67.3173 126.054C67.3173 124.718 67.6822 123.664 68.4061 122.905C69.1713 122.11 70.1542 121.71 71.3548 121.71ZM71.3254 122.64C70.4661 122.64 69.7716 122.934 69.236 123.523C68.6886 124.129 68.4179 124.959 68.4179 126.024C68.4179 127.019 68.6474 127.814 69.1065 128.402C69.389 128.767 69.7481 129.044 70.1836 129.226C70.5367 129.373 70.9075 129.45 71.3019 129.45C72.0847 129.45 72.7262 129.191 73.2265 128.679C73.8445 128.049 74.1505 127.172 74.1505 126.042C74.1505 125.012 73.8857 124.188 73.356 123.564C72.8321 122.946 72.1553 122.64 71.3254 122.64ZM77.8703 129.238H82.2728V130.191H76.7756V121.898H77.8703V129.238ZM87.1285 121.71C88.2644 121.71 89.1943 122.11 89.9301 122.905C90.6599 123.699 91.0248 124.741 91.0248 126.03C91.0248 127.178 90.7423 128.137 90.1714 128.897C89.4357 129.885 88.3939 130.38 87.052 130.38C85.7159 130.38 84.6741 129.879 83.9325 128.885C83.3734 128.131 83.0909 127.19 83.0909 126.054C83.0909 124.718 83.4558 123.664 84.1797 122.905C84.9449 122.11 85.9278 121.71 87.1285 121.71ZM87.099 122.64C86.2397 122.64 85.5452 122.934 85.0096 123.523C84.4623 124.129 84.1915 124.959 84.1915 126.024C84.1915 127.019 84.4211 127.814 84.8801 128.402C85.1627 128.767 85.5217 129.044 85.9572 129.226C86.3104 129.373 86.6812 129.45 87.0755 129.45C87.8583 129.45 88.4998 129.191 89.0001 128.679C89.6181 128.049 89.9242 127.172 89.9242 126.042C89.9242 125.012 89.6593 124.188 89.1296 123.564C88.6058 122.946 87.9289 122.64 87.099 122.64ZM96.11 125.812H99.7415V130.191H99.047L98.8763 129.562C98.8351 129.391 98.7939 129.256 98.7645 129.156C98.0935 129.974 97.2048 130.38 96.0983 130.38C94.7681 130.38 93.7381 129.903 93.0142 128.944C92.4315 128.173 92.1372 127.237 92.1372 126.13C92.1372 124.83 92.5139 123.758 93.2672 122.917C93.9853 122.11 94.9505 121.71 96.1689 121.71C97.2931 121.71 98.1818 122.04 98.8292 122.705C99.306 123.193 99.5767 123.77 99.6473 124.447H98.5761C98.5232 124.076 98.3642 123.735 98.1053 123.435C97.658 122.905 97.0105 122.64 96.1689 122.64C95.2331 122.64 94.4974 122.976 93.9618 123.652C93.4791 124.259 93.2378 125.071 93.2378 126.083C93.2378 127.013 93.4556 127.778 93.897 128.373C94.4326 129.091 95.186 129.45 96.163 129.45C96.9223 129.45 97.5402 129.214 98.0229 128.738C98.4996 128.273 98.7468 127.59 98.7645 126.701H96.11V125.812ZM106.687 121.898H107.94L104.744 126.795V130.191H103.65V126.795L100.418 121.898H101.737L103.691 124.994C103.92 125.359 104.103 125.659 104.232 125.895C104.368 125.636 104.538 125.347 104.744 125.024L106.687 121.898ZM115.374 126.26H116.321C116.304 126.578 116.245 126.948 116.133 127.366C116.021 127.772 115.898 128.09 115.751 128.32L117.363 130.191H116.074L115.197 129.15C115.097 129.32 114.909 129.52 114.644 129.744C114.156 130.162 113.532 130.368 112.784 130.368C111.984 130.368 111.342 130.121 110.86 129.626C110.453 129.208 110.253 128.679 110.253 128.025C110.253 127.284 110.565 126.666 111.189 126.171C111.56 125.877 111.895 125.665 112.19 125.53C111.948 125.242 111.754 124.971 111.607 124.706C111.395 124.335 111.289 123.97 111.289 123.605C111.289 123.146 111.43 122.764 111.719 122.452C112.09 122.052 112.59 121.851 113.226 121.851C113.773 121.851 114.214 122.004 114.562 122.305C114.932 122.634 115.121 123.058 115.121 123.576C115.121 124.447 114.615 125.165 113.596 125.73L115.103 127.561C115.268 127.107 115.356 126.678 115.374 126.26ZM113.067 125.089C113.367 124.906 113.602 124.729 113.761 124.565C114.026 124.276 114.161 123.976 114.161 123.658C114.161 123.382 114.073 123.146 113.891 122.946C113.72 122.758 113.49 122.664 113.208 122.664C112.937 122.664 112.714 122.746 112.537 122.911C112.343 123.093 112.243 123.311 112.243 123.57C112.243 123.841 112.366 124.147 112.608 124.488C112.684 124.6 112.837 124.8 113.067 125.089ZM114.638 128.467L112.731 126.166C112.419 126.348 112.184 126.501 112.025 126.625C111.525 127.019 111.277 127.478 111.277 127.99C111.277 128.385 111.425 128.732 111.725 129.044C112.025 129.362 112.407 129.52 112.867 129.52C113.39 129.52 113.855 129.326 114.261 128.932C114.362 128.832 114.485 128.679 114.638 128.467ZM123.384 121.898H124.479V127.519C124.479 128.02 124.455 128.414 124.408 128.691C124.314 129.22 124.055 129.638 123.637 129.95C123.243 130.238 122.731 130.38 122.095 130.38C120.971 130.38 120.23 130.003 119.871 129.244C119.7 128.885 119.617 128.39 119.617 127.772C119.617 127.672 119.617 127.566 119.623 127.455H120.689V127.755C120.689 128.302 120.765 128.696 120.918 128.932C121.148 129.279 121.536 129.45 122.084 129.45C122.607 129.45 122.966 129.285 123.161 128.95C123.308 128.702 123.384 128.226 123.384 127.525V121.898ZM129.929 121.71C131.065 121.71 131.995 122.11 132.731 122.905C133.461 123.699 133.825 124.741 133.825 126.03C133.825 127.178 133.543 128.137 132.972 128.897C132.236 129.885 131.195 130.38 129.853 130.38C128.517 130.38 127.475 129.879 126.733 128.885C126.174 128.131 125.892 127.19 125.892 126.054C125.892 124.718 126.256 123.664 126.98 122.905C127.746 122.11 128.728 121.71 129.929 121.71ZM129.9 122.64C129.04 122.64 128.346 122.934 127.81 123.523C127.263 124.129 126.992 124.959 126.992 126.024C126.992 127.019 127.222 127.814 127.681 128.402C127.963 128.767 128.322 129.044 128.758 129.226C129.111 129.373 129.482 129.45 129.876 129.45C130.659 129.45 131.301 129.191 131.801 128.679C132.419 128.049 132.725 127.172 132.725 126.042C132.725 125.012 132.46 124.188 131.93 123.564C131.406 122.946 130.73 122.64 129.9 122.64ZM135.35 130.191V121.898H138.687C139.493 121.898 140.082 121.993 140.453 122.175C140.824 122.358 141.106 122.634 141.306 122.999C141.477 123.299 141.559 123.629 141.559 123.976C141.559 124.506 141.371 124.959 140.988 125.33C140.812 125.506 140.594 125.642 140.335 125.742C140.641 125.824 140.882 125.924 141.053 126.042C141.636 126.436 141.924 127.013 141.924 127.767C141.924 128.443 141.724 128.997 141.318 129.426C140.994 129.774 140.594 129.997 140.123 130.109C139.876 130.162 139.57 130.191 139.205 130.191H135.35ZM138.528 122.852H136.445V125.43H138.416C138.952 125.43 139.352 125.395 139.617 125.318C139.923 125.23 140.153 125.047 140.306 124.765C140.406 124.582 140.459 124.37 140.459 124.129C140.459 123.529 140.206 123.14 139.705 122.958C139.505 122.887 139.111 122.852 138.528 122.852ZM138.452 126.319H136.445V129.238H138.634C139.393 129.238 139.9 129.173 140.153 129.038C140.6 128.814 140.824 128.402 140.824 127.802C140.824 127.131 140.523 126.684 139.929 126.454C139.694 126.366 139.199 126.319 138.452 126.319ZM149.105 124.329H148.051C147.986 123.817 147.833 123.435 147.58 123.176C147.233 122.817 146.697 122.64 145.974 122.64C145.45 122.64 145.038 122.734 144.726 122.917C144.314 123.164 144.108 123.529 144.108 124.017C144.108 124.412 144.255 124.694 144.549 124.865C144.843 125.036 145.45 125.224 146.362 125.418C146.986 125.553 147.427 125.665 147.692 125.754C148.287 125.96 148.728 126.254 149.028 126.642C149.293 126.99 149.428 127.396 149.428 127.861C149.428 128.643 149.116 129.273 148.498 129.75C147.963 130.168 147.198 130.38 146.203 130.38C145.385 130.38 144.685 130.221 144.102 129.897C143.225 129.414 142.783 128.602 142.772 127.455H143.831C143.843 127.99 143.984 128.408 144.249 128.708C144.679 129.203 145.356 129.45 146.28 129.45C146.956 129.45 147.468 129.309 147.81 129.026C148.157 128.744 148.328 128.385 148.328 127.943C148.328 127.602 148.222 127.331 148.01 127.131C147.786 126.919 147.421 126.737 146.915 126.589C146.774 126.548 146.444 126.472 145.932 126.348C145.161 126.166 144.702 126.054 144.549 126.001C144.049 125.83 143.684 125.606 143.449 125.318C143.184 124.994 143.054 124.582 143.054 124.088C143.054 123.346 143.331 122.758 143.89 122.316C144.402 121.91 145.102 121.71 145.985 121.71C147.298 121.71 148.21 122.122 148.728 122.94C148.958 123.311 149.087 123.77 149.105 124.329Z" fill="#312D78"/>
<defs>
<clipPath id="clip0_192_5792">
<rect width="146.268" height="120.238" fill="white"/>
</clipPath>
</defs>
</svg>
